<svg width="231" height="231" viewBox="0 0 231 231" fill="none" xmlns="http://www.w3.org/2000/svg">
<g filter="url(#filter0_d_2408_74)">
<path fill-rule="evenodd" clip-rule="evenodd" d="M115.5 88C100.312 88 88 100.312 88 115.5C88 130.688 100.312 143 115.5 143C130.688 143 143 130.688 143 115.5C143 100.312 130.688 88 115.5 88ZM69 115.5C69 89.8188 89.8188 69 115.5 69C141.181 69 162 89.8188 162 115.5C162 141.181 141.181 162 115.5 162C89.8188 162 69 141.181 69 115.5Z" fill="white"/>
</g>
<g filter="url(#filter1_f_2408_74)">
<circle cx="116" cy="116" r="46.5" stroke="#00B3FF" stroke-opacity="0.5"/>
</g>
<g filter="url(#filter2_f_2408_74)">
<circle cx="116" cy="116" r="46.5" stroke="#00B3FF" stroke-opacity="0.5"/>
</g>
<g filter="url(#filter3_f_2408_74)">
<circle cx="115.5" cy="115.5" r="27" stroke="#00B3FF" stroke-opacity="0.5"/>
</g>
<g filter="url(#filter4_f_2408_74)">
<circle cx="115.5" cy="115.5" r="27" stroke="#00B3FF" stroke-opacity="0.5"/>
</g>
<g filter="url(#filter5_f_2408_74)">
<circle cx="115.5" cy="115.5" r="27" stroke="#00B3FF" stroke-opacity="0.5"/>
</g>
<g filter="url(#filter6_f_2408_74)">
<circle cx="115.5" cy="115.5" r="23" stroke="#00B3FF" stroke-opacity="0.5"/>
</g>
<g filter="url(#filter7_d_2408_74)">
<path fill-rule="evenodd" clip-rule="evenodd" d="M115.5 166C143.39 166 166 143.39 166 115.5C166 87.6096 143.39 65 115.5 65C87.6096 65 65 87.6096 65 115.5C65 143.39 87.6096 166 115.5 166ZM115.5 168C144.495 168 168 144.495 168 115.5C168 86.5051 144.495 63 115.5 63C86.5051 63 63 86.5051 63 115.5C63 144.495 86.5051 168 115.5 168Z" fill="#5BD1F4"/>
</g>
<defs>
<filter id="filter0_d_2408_74" x="0.900002" y="0.900002" width="229.2" height="229.2" filterUnits="userSpaceOnUse" color-interpolation-filters="sRGB">
<feFlood flood-opacity="0" result="BackgroundImageFix"/>
<feColorMatrix in="SourceAlpha" type="matrix" values="0 0 0 0 0 0 0 0 0 0 0 0 0 0 0 0 0 0 127 0" result="hardAlpha"/>
<feOffset/>
<feGaussianBlur stdDeviation="34.05"/>
<feComposite in2="hardAlpha" operator="out"/>
<feColorMatrix type="matrix" values="0 0 0 0 0 0 0 0 0 0.7 0 0 0 0 1 0 0 0 1 0"/>
<feBlend mode="normal" in2="BackgroundImageFix" result="effect1_dropShadow_2408_74"/>
<feBlend mode="normal" in="SourceGraphic" in2="effect1_dropShadow_2408_74" result="shape"/>
</filter>
<filter id="filter1_f_2408_74" x="65" y="65" width="102" height="102" filterUnits="userSpaceOnUse" color-interpolation-filters="sRGB">
<feFlood flood-opacity="0" result="BackgroundImageFix"/>
<feBlend mode="normal" in="SourceGraphic" in2="BackgroundImageFix" result="shape"/>
<feGaussianBlur stdDeviation="2" result="effect1_foregroundBlur_2408_74"/>
</filter>
<filter id="filter2_f_2408_74" x="65" y="65" width="102" height="102" filterUnits="userSpaceOnUse" color-interpolation-filters="sRGB">
<feFlood flood-opacity="0" result="BackgroundImageFix"/>
<feBlend mode="normal" in="SourceGraphic" in2="BackgroundImageFix" result="shape"/>
<feGaussianBlur stdDeviation="2" result="effect1_foregroundBlur_2408_74"/>
</filter>
<filter id="filter3_f_2408_74" x="84" y="84" width="63" height="63" filterUnits="userSpaceOnUse" color-interpolation-filters="sRGB">
<feFlood flood-opacity="0" result="BackgroundImageFix"/>
<feBlend mode="normal" in="SourceGraphic" in2="BackgroundImageFix" result="shape"/>
<feGaussianBlur stdDeviation="2" result="effect1_foregroundBlur_2408_74"/>
</filter>
<filter id="filter4_f_2408_74" x="84" y="84" width="63" height="63" filterUnits="userSpaceOnUse" color-interpolation-filters="sRGB">
<feFlood flood-opacity="0" result="BackgroundImageFix"/>
<feBlend mode="normal" in="SourceGraphic" in2="BackgroundImageFix" result="shape"/>
<feGaussianBlur stdDeviation="2" result="effect1_foregroundBlur_2408_74"/>
</filter>
<filter id="filter5_f_2408_74" x="84" y="84" width="63" height="63" filterUnits="userSpaceOnUse" color-interpolation-filters="sRGB">
<feFlood flood-opacity="0" result="BackgroundImageFix"/>
<feBlend mode="normal" in="SourceGraphic" in2="BackgroundImageFix" result="shape"/>
<feGaussianBlur stdDeviation="2" result="effect1_foregroundBlur_2408_74"/>
</filter>
<filter id="filter6_f_2408_74" x="88" y="88" width="55" height="55" filterUnits="userSpaceOnUse" color-interpolation-filters="sRGB">
<feFlood flood-opacity="0" result="BackgroundImageFix"/>
<feBlend mode="normal" in="SourceGraphic" in2="BackgroundImageFix" result="shape"/>
<feGaussianBlur stdDeviation="2" result="effect1_foregroundBlur_2408_74"/>
</filter>
<filter id="filter7_d_2408_74" x="59" y="59" width="113" height="113" filterUnits="userSpaceOnUse" color-interpolation-filters="sRGB">
<feFlood flood-opacity="0" result="BackgroundImageFix"/>
<feColorMatrix in="SourceAlpha" type="matrix" values="0 0 0 0 0 0 0 0 0 0 0 0 0 0 0 0 0 0 127 0" result="hardAlpha"/>
<feOffset/>
<feGaussianBlur stdDeviation="2"/>
<feComposite in2="hardAlpha" operator="out"/>
<feColorMatrix type="matrix" values="0 0 0 0 0 0 0 0 0 0.7 0 0 0 0 1 0 0 0 1 0"/>
<feBlend mode="normal" in2="BackgroundImageFix" result="effect1_dropShadow_2408_74"/>
<feBlend mode="normal" in="SourceGraphic" in2="effect1_dropShadow_2408_74" result="shape"/>
</filter>
</defs>
</svg>
