<svg width="205" height="206" viewBox="0 0 205 206" fill="none" xmlns="http://www.w3.org/2000/svg">
<path d="M60.32 0C27.0627 0 0 27.1794 0 60.58V144.46C0 177.861 27.0627 205.04 60.32 205.04H143.84C177.097 205.04 204.16 177.861 204.16 144.46V60.58C204.16 27.1794 177.097 0 143.84 0H60.32ZM60.32 9.32H143.84C172.081 9.32 194.88 32.217 194.88 60.58V144.46C194.88 172.823 172.081 195.72 143.84 195.72H60.32C32.0787 195.72 9.28 172.823 9.28 144.46V60.58C9.28 32.217 32.0787 9.32 60.32 9.32ZM157.76 37.28C155.299 37.28 152.938 38.2619 151.198 40.0098C149.458 41.7576 148.48 44.1282 148.48 46.6C148.48 49.0718 149.458 51.4424 151.198 53.1902C152.938 54.9381 155.299 55.92 157.76 55.92C160.221 55.92 162.582 54.9381 164.322 53.1902C166.062 51.4424 167.04 49.0718 167.04 46.6C167.04 44.1282 166.062 41.7576 164.322 40.0098C162.582 38.2619 160.221 37.28 157.76 37.28ZM102.08 51.26C73.9463 51.26 51.04 74.2651 51.04 102.52C51.04 130.775 73.9463 153.78 102.08 153.78C130.214 153.78 153.12 130.775 153.12 102.52C153.12 74.2651 130.214 51.26 102.08 51.26ZM102.08 60.58C125.198 60.58 143.84 79.302 143.84 102.52C143.84 125.738 125.198 144.46 102.08 144.46C78.9616 144.46 60.32 125.738 60.32 102.52C60.32 79.302 78.9616 60.58 102.08 60.58Z" fill="#F5F5F5"/>
</svg>
