<svg width="594" height="587" viewBox="0 0 594 587" fill="none" xmlns="http://www.w3.org/2000/svg">
<path d="M297.411 6.37891C372.453 6.36384 444.43 35.7428 497.511 88.055C550.593 140.367 580.434 211.329 580.471 285.336C580.509 359.343 550.74 430.334 497.711 482.699C444.683 535.063 372.736 564.513 297.694 564.572L297.615 466.888C346.393 466.85 393.158 447.708 427.626 413.671C462.095 379.634 481.445 333.489 481.42 285.385C481.396 237.281 461.999 191.155 427.496 157.152C392.993 123.149 346.209 104.053 297.431 104.063L297.411 6.37891Z" fill="url(#paint0_linear_2426_258)" stroke="#111725" stroke-linejoin="round"/>
<path d="M297.411 564.573C224.156 564.558 153.762 536.531 101.029 486.385L169.783 416.067C204.059 448.662 249.815 466.879 297.431 466.889L297.411 564.573Z" fill="url(#paint1_linear_2426_258)" stroke="#111725" stroke-linejoin="round"/>
<path d="M100.826 486.191C57.868 445.258 29.1447 391.97 18.7686 333.957L116.314 316.988C123.058 354.697 141.728 389.334 169.651 415.94L100.826 486.191Z" fill="url(#paint2_linear_2426_258)" stroke="#111725" stroke-linejoin="round"/>
<path d="M18.7194 333.682C8.41886 275.752 16.938 216.094 43.0607 163.223L132.103 206.011C115.124 240.378 109.586 279.156 116.282 316.81L18.7194 333.682Z" fill="url(#paint3_linear_2426_258)" stroke="#111725" stroke-linejoin="round"/>
<path d="M43.1846 162.972C63.4495 122.06 93.5561 86.6598 130.879 59.8574L189.185 138.824C164.925 156.245 145.356 179.256 132.184 205.848L43.1846 162.972Z" fill="url(#paint4_linear_2426_258)" stroke="#111725" stroke-linejoin="round"/>
<path d="M131.107 59.6936C155.043 42.5411 181.557 29.1963 209.685 20.1455L240.409 113.011C222.126 118.894 204.892 127.568 189.334 138.717L131.107 59.6936Z" fill="url(#paint5_linear_2426_258)" stroke="#111725" stroke-linejoin="round"/>
<path d="M209.954 20.0584C238.091 11.0353 267.488 6.41943 297.075 6.37891L297.213 104.063C277.981 104.089 258.873 107.089 240.584 112.954L209.954 20.0584Z" fill="#7AC6F8" stroke="#111725" stroke-linejoin="round"/>
<path d="M504.246 280.926L499.754 279.852L501.375 265.438H517.352V269.989H506.004L505.301 276.297C505.678 276.076 506.251 275.841 507.02 275.594C507.788 275.334 508.647 275.203 509.598 275.203C510.978 275.203 512.202 275.418 513.27 275.848C514.337 276.278 515.242 276.903 515.984 277.723C516.74 278.543 517.312 279.546 517.703 280.731C518.094 281.916 518.289 283.257 518.289 284.754C518.289 286.017 518.094 287.222 517.703 288.367C517.312 289.5 516.72 290.516 515.926 291.414C515.132 292.3 514.135 292.996 512.938 293.504C511.74 294.012 510.32 294.266 508.68 294.266C507.456 294.266 506.271 294.084 505.125 293.719C503.992 293.354 502.97 292.814 502.059 292.098C501.16 291.382 500.438 290.516 499.891 289.5C499.357 288.472 499.077 287.3 499.051 285.985H504.637C504.715 286.792 504.923 287.489 505.262 288.074C505.613 288.647 506.076 289.09 506.648 289.403C507.221 289.715 507.892 289.871 508.66 289.871C509.376 289.871 509.988 289.735 510.496 289.461C511.004 289.188 511.414 288.81 511.727 288.328C512.039 287.834 512.267 287.261 512.41 286.61C512.566 285.946 512.645 285.229 512.645 284.461C512.645 283.693 512.553 282.996 512.371 282.371C512.189 281.746 511.909 281.206 511.531 280.75C511.154 280.295 510.672 279.943 510.086 279.696C509.513 279.448 508.842 279.324 508.074 279.324C507.033 279.324 506.225 279.487 505.652 279.813C505.092 280.138 504.624 280.509 504.246 280.926ZM541.062 277.156V282.078C541.062 284.214 540.835 286.056 540.379 287.606C539.923 289.142 539.266 290.405 538.406 291.395C537.56 292.371 536.551 293.094 535.379 293.563C534.207 294.031 532.905 294.266 531.473 294.266C530.327 294.266 529.259 294.123 528.27 293.836C527.28 293.537 526.388 293.074 525.594 292.449C524.812 291.824 524.135 291.037 523.562 290.086C523.003 289.123 522.573 287.977 522.273 286.649C521.974 285.321 521.824 283.797 521.824 282.078V277.156C521.824 275.021 522.052 273.192 522.508 271.668C522.977 270.132 523.634 268.875 524.48 267.899C525.34 266.922 526.355 266.206 527.527 265.75C528.699 265.281 530.001 265.047 531.434 265.047C532.579 265.047 533.641 265.197 534.617 265.496C535.607 265.783 536.499 266.232 537.293 266.844C538.087 267.456 538.764 268.244 539.324 269.207C539.884 270.158 540.314 271.297 540.613 272.625C540.913 273.94 541.062 275.451 541.062 277.156ZM535.418 282.821V276.395C535.418 275.366 535.359 274.468 535.242 273.699C535.138 272.931 534.975 272.28 534.754 271.746C534.533 271.199 534.259 270.757 533.934 270.418C533.608 270.08 533.237 269.832 532.82 269.676C532.404 269.52 531.941 269.442 531.434 269.442C530.796 269.442 530.229 269.565 529.734 269.813C529.253 270.06 528.842 270.457 528.504 271.004C528.165 271.538 527.905 272.254 527.723 273.153C527.553 274.038 527.469 275.119 527.469 276.395V282.821C527.469 283.849 527.521 284.754 527.625 285.535C527.742 286.317 527.911 286.987 528.133 287.547C528.367 288.094 528.641 288.543 528.953 288.895C529.279 289.233 529.65 289.481 530.066 289.637C530.496 289.793 530.965 289.871 531.473 289.871C532.098 289.871 532.651 289.748 533.133 289.5C533.628 289.24 534.044 288.836 534.383 288.289C534.734 287.729 534.995 287 535.164 286.102C535.333 285.203 535.418 284.11 535.418 282.821ZM544.812 272.41V270.906C544.812 269.826 545.047 268.843 545.516 267.957C545.984 267.072 546.674 266.362 547.586 265.828C548.497 265.295 549.617 265.028 550.945 265.028C552.312 265.028 553.452 265.295 554.363 265.828C555.288 266.362 555.978 267.072 556.434 267.957C556.902 268.843 557.137 269.826 557.137 270.906V272.41C557.137 273.465 556.902 274.435 556.434 275.321C555.978 276.206 555.294 276.916 554.383 277.449C553.471 277.983 552.339 278.25 550.984 278.25C549.643 278.25 548.51 277.983 547.586 277.449C546.674 276.916 545.984 276.206 545.516 275.321C545.047 274.435 544.812 273.465 544.812 272.41ZM548.543 270.906V272.41C548.543 272.866 548.628 273.302 548.797 273.719C548.979 274.123 549.253 274.455 549.617 274.715C549.995 274.962 550.451 275.086 550.984 275.086C551.544 275.086 552 274.962 552.352 274.715C552.703 274.455 552.964 274.123 553.133 273.719C553.302 273.302 553.387 272.866 553.387 272.41V270.906C553.387 270.425 553.296 269.982 553.113 269.578C552.944 269.162 552.677 268.83 552.312 268.582C551.961 268.322 551.505 268.192 550.945 268.192C550.424 268.192 549.982 268.322 549.617 268.582C549.253 268.83 548.979 269.162 548.797 269.578C548.628 269.982 548.543 270.425 548.543 270.906ZM558.406 288.406V286.903C558.406 285.835 558.641 284.858 559.109 283.973C559.591 283.087 560.288 282.378 561.199 281.844C562.124 281.31 563.257 281.043 564.598 281.043C565.952 281.043 567.085 281.31 567.996 281.844C568.908 282.378 569.598 283.087 570.066 283.973C570.535 284.858 570.77 285.835 570.77 286.903V288.406C570.77 289.474 570.535 290.451 570.066 291.336C569.611 292.222 568.927 292.931 568.016 293.465C567.104 293.999 565.978 294.266 564.637 294.266C563.283 294.266 562.143 293.999 561.219 293.465C560.294 292.931 559.591 292.222 559.109 291.336C558.641 290.451 558.406 289.474 558.406 288.406ZM562.156 286.903V288.406C562.156 288.875 562.26 289.318 562.469 289.735C562.677 290.151 562.964 290.483 563.328 290.731C563.706 290.978 564.142 291.102 564.637 291.102C565.262 291.102 565.75 290.978 566.102 290.731C566.453 290.483 566.694 290.151 566.824 289.735C566.967 289.318 567.039 288.875 567.039 288.406V286.903C567.039 286.434 566.948 285.998 566.766 285.594C566.583 285.177 566.31 284.845 565.945 284.598C565.594 284.337 565.145 284.207 564.598 284.207C564.051 284.207 563.595 284.337 563.23 284.598C562.879 284.845 562.612 285.177 562.43 285.594C562.247 285.998 562.156 286.434 562.156 286.903ZM565.984 269.5L552.098 291.727L549.363 290.281L563.25 268.055L565.984 269.5Z" fill="#EBEBEB"/>
<path d="M168.847 481.222V509.718H163.222V487.706L156.464 489.854V485.421L168.241 481.222H168.847ZM197.558 505.323V509.718H178.104V505.968L187.304 496.104C188.228 495.076 188.957 494.171 189.491 493.39C190.025 492.595 190.409 491.886 190.644 491.261C190.891 490.623 191.015 490.017 191.015 489.444C191.015 488.585 190.871 487.849 190.585 487.237C190.299 486.612 189.875 486.131 189.315 485.792C188.769 485.453 188.091 485.284 187.284 485.284C186.425 485.284 185.683 485.493 185.058 485.909C184.446 486.326 183.977 486.905 183.651 487.647C183.339 488.39 183.183 489.229 183.183 490.167H177.538C177.538 488.474 177.942 486.925 178.749 485.519C179.556 484.099 180.696 482.973 182.167 482.14C183.638 481.293 185.383 480.87 187.401 480.87C189.394 480.87 191.073 481.196 192.44 481.847C193.821 482.485 194.862 483.409 195.565 484.62C196.282 485.818 196.64 487.25 196.64 488.917C196.64 489.854 196.49 490.772 196.19 491.671C195.891 492.556 195.461 493.442 194.901 494.327C194.354 495.2 193.69 496.085 192.909 496.983C192.128 497.882 191.262 498.813 190.312 499.776L185.37 505.323H197.558ZM201.581 507.003C201.581 506.17 201.868 505.473 202.44 504.913C203.026 504.353 203.801 504.073 204.765 504.073C205.728 504.073 206.496 504.353 207.069 504.913C207.655 505.473 207.948 506.17 207.948 507.003C207.948 507.836 207.655 508.533 207.069 509.093C206.496 509.653 205.728 509.933 204.765 509.933C203.801 509.933 203.026 509.653 202.44 509.093C201.868 508.533 201.581 507.836 201.581 507.003ZM232.128 505.323V509.718H212.675V505.968L221.874 496.104C222.799 495.076 223.528 494.171 224.062 493.39C224.595 492.595 224.979 491.886 225.214 491.261C225.461 490.623 225.585 490.017 225.585 489.444C225.585 488.585 225.442 487.849 225.155 487.237C224.869 486.612 224.446 486.131 223.886 485.792C223.339 485.453 222.662 485.284 221.854 485.284C220.995 485.284 220.253 485.493 219.628 485.909C219.016 486.326 218.547 486.905 218.222 487.647C217.909 488.39 217.753 489.229 217.753 490.167H212.108C212.108 488.474 212.512 486.925 213.319 485.519C214.127 484.099 215.266 482.973 216.737 482.14C218.209 481.293 219.953 480.87 221.972 480.87C223.964 480.87 225.644 481.196 227.011 481.847C228.391 482.485 229.433 483.409 230.136 484.62C230.852 485.818 231.21 487.25 231.21 488.917C231.21 489.854 231.06 490.772 230.761 491.671C230.461 492.556 230.032 493.442 229.472 494.327C228.925 495.2 228.261 496.085 227.479 496.983C226.698 497.882 225.832 498.813 224.882 499.776L219.94 505.323H232.128ZM235.565 488.253V486.749C235.565 485.668 235.8 484.685 236.269 483.8C236.737 482.914 237.427 482.205 238.339 481.671C239.25 481.137 240.37 480.87 241.698 480.87C243.065 480.87 244.205 481.137 245.116 481.671C246.041 482.205 246.731 482.914 247.187 483.8C247.655 484.685 247.89 485.668 247.89 486.749V488.253C247.89 489.308 247.655 490.278 247.187 491.163C246.731 492.049 246.047 492.758 245.136 493.292C244.224 493.826 243.091 494.093 241.737 494.093C240.396 494.093 239.263 493.826 238.339 493.292C237.427 492.758 236.737 492.049 236.269 491.163C235.8 490.278 235.565 489.308 235.565 488.253ZM239.296 486.749V488.253C239.296 488.709 239.381 489.145 239.55 489.562C239.732 489.965 240.006 490.297 240.37 490.558C240.748 490.805 241.203 490.929 241.737 490.929C242.297 490.929 242.753 490.805 243.104 490.558C243.456 490.297 243.716 489.965 243.886 489.562C244.055 489.145 244.14 488.709 244.14 488.253V486.749C244.14 486.267 244.049 485.825 243.866 485.421C243.697 485.004 243.43 484.672 243.065 484.425C242.714 484.164 242.258 484.034 241.698 484.034C241.177 484.034 240.735 484.164 240.37 484.425C240.006 484.672 239.732 485.004 239.55 485.421C239.381 485.825 239.296 486.267 239.296 486.749ZM249.159 504.249V502.745C249.159 501.677 249.394 500.701 249.862 499.815C250.344 498.93 251.041 498.22 251.952 497.687C252.877 497.153 254.009 496.886 255.351 496.886C256.705 496.886 257.838 497.153 258.749 497.687C259.66 498.22 260.351 498.93 260.819 499.815C261.288 500.701 261.522 501.677 261.522 502.745V504.249C261.522 505.317 261.288 506.293 260.819 507.179C260.364 508.064 259.68 508.774 258.769 509.308C257.857 509.841 256.731 510.108 255.39 510.108C254.035 510.108 252.896 509.841 251.972 509.308C251.047 508.774 250.344 508.064 249.862 507.179C249.394 506.293 249.159 505.317 249.159 504.249ZM252.909 502.745V504.249C252.909 504.718 253.013 505.16 253.222 505.577C253.43 505.994 253.716 506.326 254.081 506.573C254.459 506.821 254.895 506.944 255.39 506.944C256.015 506.944 256.503 506.821 256.854 506.573C257.206 506.326 257.447 505.994 257.577 505.577C257.72 505.16 257.792 504.718 257.792 504.249V502.745C257.792 502.276 257.701 501.84 257.519 501.437C257.336 501.02 257.063 500.688 256.698 500.44C256.347 500.18 255.897 500.05 255.351 500.05C254.804 500.05 254.348 500.18 253.983 500.44C253.632 500.688 253.365 501.02 253.183 501.437C253 501.84 252.909 502.276 252.909 502.745ZM256.737 485.343L242.851 507.569L240.116 506.124L254.003 483.897L256.737 485.343Z" fill="#EBEBEB"/>
<path d="M71.6641 378.765V407.261H66.0391V385.25L59.2812 387.398V382.965L71.0586 378.765H71.6641ZM100.062 390.543V395.465C100.062 397.6 99.8346 399.442 99.3789 400.992C98.9232 402.528 98.2656 403.791 97.4062 404.781C96.5599 405.758 95.5508 406.48 94.3789 406.949C93.207 407.418 91.9049 407.652 90.4727 407.652C89.3268 407.652 88.2591 407.509 87.2695 407.222C86.2799 406.923 85.388 406.461 84.5938 405.836C83.8125 405.211 83.1354 404.423 82.5625 403.472C82.0026 402.509 81.5729 401.363 81.2734 400.035C80.974 398.707 80.8242 397.183 80.8242 395.465V390.543C80.8242 388.407 81.0521 386.578 81.5078 385.054C81.9766 383.518 82.6341 382.261 83.4805 381.285C84.3398 380.308 85.3555 379.592 86.5273 379.136C87.6992 378.668 89.0013 378.433 90.4336 378.433C91.5794 378.433 92.6406 378.583 93.6172 378.883C94.6068 379.169 95.4987 379.618 96.293 380.23C97.0872 380.842 97.7643 381.63 98.3242 382.594C98.8841 383.544 99.3138 384.683 99.6133 386.011C99.9128 387.327 100.062 388.837 100.062 390.543ZM94.418 396.207V389.781C94.418 388.752 94.3594 387.854 94.2422 387.086C94.138 386.317 93.9753 385.666 93.7539 385.133C93.5326 384.586 93.2591 384.143 92.9336 383.804C92.6081 383.466 92.237 383.219 91.8203 383.062C91.4036 382.906 90.9414 382.828 90.4336 382.828C89.7956 382.828 89.2292 382.952 88.7344 383.199C88.2526 383.446 87.8424 383.844 87.5039 384.39C87.1654 384.924 86.9049 385.64 86.7227 386.539C86.5534 387.424 86.4688 388.505 86.4688 389.781V396.207C86.4688 397.235 86.5208 398.14 86.625 398.922C86.7422 399.703 86.9115 400.373 87.1328 400.933C87.3672 401.48 87.6406 401.929 87.9531 402.281C88.2786 402.62 88.6497 402.867 89.0664 403.023C89.4961 403.179 89.9648 403.258 90.4727 403.258C91.0977 403.258 91.651 403.134 92.1328 402.886C92.6276 402.626 93.0443 402.222 93.3828 401.676C93.7344 401.116 93.9948 400.386 94.1641 399.488C94.3333 398.59 94.418 397.496 94.418 396.207ZM103.812 385.797V384.293C103.812 383.212 104.047 382.229 104.516 381.344C104.984 380.458 105.674 379.748 106.586 379.215C107.497 378.681 108.617 378.414 109.945 378.414C111.312 378.414 112.452 378.681 113.363 379.215C114.288 379.748 114.978 380.458 115.434 381.344C115.902 382.229 116.137 383.212 116.137 384.293V385.797C116.137 386.851 115.902 387.821 115.434 388.707C114.978 389.592 114.294 390.302 113.383 390.836C112.471 391.37 111.339 391.636 109.984 391.636C108.643 391.636 107.51 391.37 106.586 390.836C105.674 390.302 104.984 389.592 104.516 388.707C104.047 387.821 103.812 386.851 103.812 385.797ZM107.543 384.293V385.797C107.543 386.252 107.628 386.689 107.797 387.105C107.979 387.509 108.253 387.841 108.617 388.101C108.995 388.349 109.451 388.472 109.984 388.472C110.544 388.472 111 388.349 111.352 388.101C111.703 387.841 111.964 387.509 112.133 387.105C112.302 386.689 112.387 386.252 112.387 385.797V384.293C112.387 383.811 112.296 383.368 112.113 382.965C111.944 382.548 111.677 382.216 111.312 381.969C110.961 381.708 110.505 381.578 109.945 381.578C109.424 381.578 108.982 381.708 108.617 381.969C108.253 382.216 107.979 382.548 107.797 382.965C107.628 383.368 107.543 383.811 107.543 384.293ZM117.406 401.793V400.289C117.406 399.221 117.641 398.245 118.109 397.359C118.591 396.474 119.288 395.764 120.199 395.23C121.124 394.696 122.257 394.429 123.598 394.429C124.952 394.429 126.085 394.696 126.996 395.23C127.908 395.764 128.598 396.474 129.066 397.359C129.535 398.245 129.77 399.221 129.77 400.289V401.793C129.77 402.86 129.535 403.837 129.066 404.722C128.611 405.608 127.927 406.317 127.016 406.851C126.104 407.385 124.978 407.652 123.637 407.652C122.283 407.652 121.143 407.385 120.219 406.851C119.294 406.317 118.591 405.608 118.109 404.722C117.641 403.837 117.406 402.86 117.406 401.793ZM121.156 400.289V401.793C121.156 402.261 121.26 402.704 121.469 403.121C121.677 403.538 121.964 403.87 122.328 404.117C122.706 404.364 123.142 404.488 123.637 404.488C124.262 404.488 124.75 404.364 125.102 404.117C125.453 403.87 125.694 403.538 125.824 403.121C125.967 402.704 126.039 402.261 126.039 401.793V400.289C126.039 399.82 125.948 399.384 125.766 398.98C125.583 398.564 125.31 398.232 124.945 397.984C124.594 397.724 124.145 397.594 123.598 397.594C123.051 397.594 122.595 397.724 122.23 397.984C121.879 398.232 121.612 398.564 121.43 398.98C121.247 399.384 121.156 399.82 121.156 400.289ZM124.984 382.886L111.098 405.113L108.363 403.668L122.25 381.441L124.984 382.886Z" fill="#EBEBEB"/>
<path d="M48.6641 242.301V270.797H43.0391V248.785L36.2812 250.933V246.5L48.0586 242.301H48.6641ZM77.0625 254.078V259C77.0625 261.135 76.8346 262.978 76.3789 264.527C75.9232 266.064 75.2656 267.327 74.4062 268.316C73.5599 269.293 72.5508 270.015 71.3789 270.484C70.207 270.953 68.9049 271.187 67.4727 271.187C66.3268 271.187 65.2591 271.044 64.2695 270.758C63.2799 270.458 62.388 269.996 61.5938 269.371C60.8125 268.746 60.1354 267.958 59.5625 267.008C59.0026 266.044 58.5729 264.898 58.2734 263.57C57.974 262.242 57.8242 260.719 57.8242 259V254.078C57.8242 251.942 58.0521 250.113 58.5078 248.59C58.9766 247.053 59.6341 245.797 60.4805 244.82C61.3398 243.844 62.3555 243.127 63.5273 242.672C64.6992 242.203 66.0013 241.969 67.4336 241.969C68.5794 241.969 69.6406 242.118 70.6172 242.418C71.6068 242.704 72.4987 243.153 73.293 243.765C74.0872 244.377 74.7643 245.165 75.3242 246.129C75.8841 247.079 76.3138 248.219 76.6133 249.547C76.9128 250.862 77.0625 252.372 77.0625 254.078ZM71.418 259.742V253.316C71.418 252.288 71.3594 251.389 71.2422 250.621C71.138 249.853 70.9753 249.202 70.7539 248.668C70.5326 248.121 70.2591 247.678 69.9336 247.34C69.6081 247.001 69.237 246.754 68.8203 246.597C68.4036 246.441 67.9414 246.363 67.4336 246.363C66.7956 246.363 66.2292 246.487 65.7344 246.734C65.2526 246.982 64.8424 247.379 64.5039 247.926C64.1654 248.459 63.9049 249.176 63.7227 250.074C63.5534 250.959 63.4688 252.04 63.4688 253.316V259.742C63.4688 260.771 63.5208 261.676 63.625 262.457C63.7422 263.238 63.9115 263.909 64.1328 264.469C64.3672 265.015 64.6406 265.465 64.9531 265.816C65.2786 266.155 65.6497 266.402 66.0664 266.558C66.4961 266.715 66.9648 266.793 67.4727 266.793C68.0977 266.793 68.651 266.669 69.1328 266.422C69.6276 266.161 70.0443 265.758 70.3828 265.211C70.7344 264.651 70.9948 263.922 71.1641 263.023C71.3333 262.125 71.418 261.031 71.418 259.742ZM80.8125 249.332V247.828C80.8125 246.747 81.0469 245.764 81.5156 244.879C81.9844 243.993 82.6745 243.284 83.5859 242.75C84.4974 242.216 85.6172 241.949 86.9453 241.949C88.3125 241.949 89.4518 242.216 90.3633 242.75C91.2878 243.284 91.9779 243.993 92.4336 244.879C92.9023 245.764 93.1367 246.747 93.1367 247.828V249.332C93.1367 250.386 92.9023 251.357 92.4336 252.242C91.9779 253.127 91.2943 253.837 90.3828 254.371C89.4714 254.905 88.3385 255.172 86.9844 255.172C85.6432 255.172 84.5104 254.905 83.5859 254.371C82.6745 253.837 81.9844 253.127 81.5156 252.242C81.0469 251.357 80.8125 250.386 80.8125 249.332ZM84.543 247.828V249.332C84.543 249.788 84.6276 250.224 84.7969 250.64C84.9792 251.044 85.2526 251.376 85.6172 251.636C85.9948 251.884 86.4505 252.008 86.9844 252.008C87.5443 252.008 88 251.884 88.3516 251.636C88.7031 251.376 88.9635 251.044 89.1328 250.64C89.3021 250.224 89.3867 249.788 89.3867 249.332V247.828C89.3867 247.346 89.2956 246.903 89.1133 246.5C88.944 246.083 88.6771 245.751 88.3125 245.504C87.9609 245.243 87.5052 245.113 86.9453 245.113C86.4245 245.113 85.9818 245.243 85.6172 245.504C85.2526 245.751 84.9792 246.083 84.7969 246.5C84.6276 246.903 84.543 247.346 84.543 247.828ZM94.4062 265.328V263.824C94.4062 262.756 94.6406 261.78 95.1094 260.894C95.5911 260.009 96.2878 259.299 97.1992 258.765C98.1237 258.232 99.2565 257.965 100.598 257.965C101.952 257.965 103.085 258.232 103.996 258.765C104.908 259.299 105.598 260.009 106.066 260.894C106.535 261.78 106.77 262.756 106.77 263.824V265.328C106.77 266.396 106.535 267.372 106.066 268.258C105.611 269.143 104.927 269.853 104.016 270.386C103.104 270.92 101.978 271.187 100.637 271.187C99.2826 271.187 98.1432 270.92 97.2188 270.386C96.2943 269.853 95.5911 269.143 95.1094 268.258C94.6406 267.372 94.4062 266.396 94.4062 265.328ZM98.1562 263.824V265.328C98.1562 265.797 98.2604 266.239 98.4688 266.656C98.6771 267.073 98.9635 267.405 99.3281 267.652C99.7057 267.899 100.142 268.023 100.637 268.023C101.262 268.023 101.75 267.899 102.102 267.652C102.453 267.405 102.694 267.073 102.824 266.656C102.967 266.239 103.039 265.797 103.039 265.328V263.824C103.039 263.355 102.948 262.919 102.766 262.515C102.583 262.099 102.31 261.767 101.945 261.519C101.594 261.259 101.145 261.129 100.598 261.129C100.051 261.129 99.5951 261.259 99.2305 261.519C98.8789 261.767 98.612 262.099 98.4297 262.515C98.2474 262.919 98.1562 263.355 98.1562 263.824ZM101.984 246.422L88.0977 268.648L85.3633 267.203L99.25 244.976L101.984 246.422Z" fill="#EBEBEB"/>
<path d="M100.27 123.956V126.983L89.2734 152.393H83.3359L94.332 128.35H80.1719V123.956H100.27ZM104.43 149.678C104.43 148.845 104.716 148.148 105.289 147.588C105.875 147.028 106.65 146.749 107.613 146.749C108.577 146.749 109.345 147.028 109.918 147.588C110.504 148.148 110.797 148.845 110.797 149.678C110.797 150.512 110.504 151.208 109.918 151.768C109.345 152.328 108.577 152.608 107.613 152.608C106.65 152.608 105.875 152.328 105.289 151.768C104.716 151.208 104.43 150.512 104.43 149.678ZM134.684 144.6C134.684 146.384 134.267 147.888 133.434 149.112C132.6 150.323 131.454 151.241 129.996 151.866C128.551 152.478 126.91 152.784 125.074 152.784C123.238 152.784 121.591 152.478 120.133 151.866C118.674 151.241 117.522 150.323 116.676 149.112C115.829 147.888 115.406 146.384 115.406 144.6C115.406 143.402 115.647 142.321 116.129 141.358C116.611 140.381 117.281 139.548 118.141 138.858C119.013 138.155 120.035 137.621 121.207 137.256C122.379 136.879 123.655 136.69 125.035 136.69C126.884 136.69 128.538 137.015 129.996 137.667C131.454 138.318 132.6 139.236 133.434 140.42C134.267 141.605 134.684 142.999 134.684 144.6ZM129.02 144.229C129.02 143.357 128.85 142.608 128.512 141.983C128.186 141.345 127.724 140.857 127.125 140.518C126.526 140.18 125.829 140.01 125.035 140.01C124.241 140.01 123.544 140.18 122.945 140.518C122.346 140.857 121.878 141.345 121.539 141.983C121.214 142.608 121.051 143.357 121.051 144.229C121.051 145.088 121.214 145.831 121.539 146.456C121.878 147.081 122.346 147.562 122.945 147.901C123.557 148.226 124.267 148.389 125.074 148.389C125.882 148.389 126.578 148.226 127.164 147.901C127.763 147.562 128.219 147.081 128.531 146.456C128.857 145.831 129.02 145.088 129.02 144.229ZM134.078 131.495C134.078 132.94 133.694 134.222 132.926 135.342C132.158 136.449 131.09 137.315 129.723 137.94C128.368 138.565 126.819 138.877 125.074 138.877C123.316 138.877 121.754 138.565 120.387 137.94C119.02 137.315 117.952 136.449 117.184 135.342C116.415 134.222 116.031 132.94 116.031 131.495C116.031 129.776 116.415 128.331 117.184 127.159C117.965 125.974 119.033 125.075 120.387 124.463C121.754 123.851 123.303 123.545 125.035 123.545C126.793 123.545 128.349 123.851 129.703 124.463C131.07 125.075 132.138 125.974 132.906 127.159C133.688 128.331 134.078 129.776 134.078 131.495ZM128.453 131.749C128.453 130.98 128.316 130.316 128.043 129.756C127.77 129.183 127.379 128.741 126.871 128.428C126.376 128.116 125.764 127.959 125.035 127.959C124.332 127.959 123.727 128.109 123.219 128.409C122.724 128.708 122.34 129.144 122.066 129.717C121.806 130.277 121.676 130.954 121.676 131.749C121.676 132.517 121.806 133.194 122.066 133.78C122.34 134.353 122.73 134.802 123.238 135.127C123.746 135.453 124.358 135.616 125.074 135.616C125.79 135.616 126.396 135.453 126.891 135.127C127.398 134.802 127.783 134.353 128.043 133.78C128.316 133.194 128.453 132.517 128.453 131.749ZM138.414 130.928V129.424C138.414 128.344 138.648 127.361 139.117 126.475C139.586 125.59 140.276 124.88 141.188 124.346C142.099 123.812 143.219 123.545 144.547 123.545C145.914 123.545 147.053 123.812 147.965 124.346C148.889 124.88 149.579 125.59 150.035 126.475C150.504 127.361 150.738 128.344 150.738 129.424V130.928C150.738 131.983 150.504 132.953 150.035 133.838C149.579 134.724 148.896 135.433 147.984 135.967C147.073 136.501 145.94 136.768 144.586 136.768C143.245 136.768 142.112 136.501 141.188 135.967C140.276 135.433 139.586 134.724 139.117 133.838C138.648 132.953 138.414 131.983 138.414 130.928ZM142.145 129.424V130.928C142.145 131.384 142.229 131.82 142.398 132.237C142.581 132.64 142.854 132.972 143.219 133.233C143.596 133.48 144.052 133.604 144.586 133.604C145.146 133.604 145.602 133.48 145.953 133.233C146.305 132.972 146.565 132.64 146.734 132.237C146.904 131.82 146.988 131.384 146.988 130.928V129.424C146.988 128.943 146.897 128.5 146.715 128.096C146.546 127.68 146.279 127.347 145.914 127.1C145.562 126.84 145.107 126.709 144.547 126.709C144.026 126.709 143.583 126.84 143.219 127.1C142.854 127.347 142.581 127.68 142.398 128.096C142.229 128.5 142.145 128.943 142.145 129.424ZM152.008 146.924V145.42C152.008 144.353 152.242 143.376 152.711 142.491C153.193 141.605 153.889 140.896 154.801 140.362C155.725 139.828 156.858 139.561 158.199 139.561C159.553 139.561 160.686 139.828 161.598 140.362C162.509 140.896 163.199 141.605 163.668 142.491C164.137 143.376 164.371 144.353 164.371 145.42V146.924C164.371 147.992 164.137 148.969 163.668 149.854C163.212 150.739 162.529 151.449 161.617 151.983C160.706 152.517 159.579 152.784 158.238 152.784C156.884 152.784 155.745 152.517 154.82 151.983C153.896 151.449 153.193 150.739 152.711 149.854C152.242 148.969 152.008 147.992 152.008 146.924ZM155.758 145.42V146.924C155.758 147.393 155.862 147.836 156.07 148.252C156.279 148.669 156.565 149.001 156.93 149.249C157.307 149.496 157.743 149.62 158.238 149.62C158.863 149.62 159.352 149.496 159.703 149.249C160.055 149.001 160.296 148.669 160.426 148.252C160.569 147.836 160.641 147.393 160.641 146.924V145.42C160.641 144.952 160.549 144.515 160.367 144.112C160.185 143.695 159.911 143.363 159.547 143.116C159.195 142.855 158.746 142.725 158.199 142.725C157.652 142.725 157.197 142.855 156.832 143.116C156.48 143.363 156.214 143.695 156.031 144.112C155.849 144.515 155.758 144.952 155.758 145.42ZM159.586 128.018L145.699 150.245L142.965 148.799L156.852 126.573L159.586 128.018Z" fill="#EBEBEB"/>
<path d="M171.246 76.2285L166.754 75.1543L168.375 60.7402H184.352V65.291H173.004L172.301 71.5996C172.678 71.3783 173.251 71.1439 174.02 70.8965C174.788 70.6361 175.647 70.5059 176.598 70.5059C177.978 70.5059 179.202 70.7207 180.27 71.1504C181.337 71.5801 182.242 72.2051 182.984 73.0254C183.74 73.8457 184.312 74.8483 184.703 76.0332C185.094 77.2181 185.289 78.5592 185.289 80.0566C185.289 81.3197 185.094 82.5241 184.703 83.6699C184.312 84.8027 183.72 85.8184 182.926 86.7168C182.132 87.6022 181.135 88.2988 179.938 88.8066C178.74 89.3145 177.32 89.5684 175.68 89.5684C174.456 89.5684 173.271 89.3861 172.125 89.0215C170.992 88.6569 169.97 88.1165 169.059 87.4004C168.16 86.6842 167.438 85.8184 166.891 84.8027C166.357 83.7741 166.077 82.6022 166.051 81.2871H171.637C171.715 82.0944 171.923 82.791 172.262 83.377C172.613 83.9499 173.076 84.3926 173.648 84.7051C174.221 85.0176 174.892 85.1738 175.66 85.1738C176.376 85.1738 176.988 85.0371 177.496 84.7637C178.004 84.4902 178.414 84.1126 178.727 83.6309C179.039 83.1361 179.267 82.5632 179.41 81.9121C179.566 81.248 179.645 80.5319 179.645 79.7637C179.645 78.9954 179.553 78.2988 179.371 77.6738C179.189 77.0488 178.909 76.5085 178.531 76.0527C178.154 75.597 177.672 75.2454 177.086 74.998C176.513 74.7507 175.842 74.627 175.074 74.627C174.033 74.627 173.225 74.7897 172.652 75.1152C172.092 75.4408 171.624 75.8118 171.246 76.2285ZM188.844 67.7129V66.209C188.844 65.1283 189.078 64.1452 189.547 63.2598C190.016 62.3743 190.706 61.6647 191.617 61.1309C192.529 60.597 193.648 60.3301 194.977 60.3301C196.344 60.3301 197.483 60.597 198.395 61.1309C199.319 61.6647 200.009 62.3743 200.465 63.2598C200.934 64.1452 201.168 65.1283 201.168 66.209V67.7129C201.168 68.7676 200.934 69.7376 200.465 70.623C200.009 71.5085 199.326 72.2181 198.414 72.752C197.503 73.2858 196.37 73.5527 195.016 73.5527C193.674 73.5527 192.542 73.2858 191.617 72.752C190.706 72.2181 190.016 71.5085 189.547 70.623C189.078 69.7376 188.844 68.7676 188.844 67.7129ZM192.574 66.209V67.7129C192.574 68.1686 192.659 68.6048 192.828 69.0215C193.01 69.4251 193.284 69.7572 193.648 70.0176C194.026 70.265 194.482 70.3887 195.016 70.3887C195.576 70.3887 196.031 70.265 196.383 70.0176C196.734 69.7572 196.995 69.4251 197.164 69.0215C197.333 68.6048 197.418 68.1686 197.418 67.7129V66.209C197.418 65.7272 197.327 65.2845 197.145 64.8809C196.975 64.4642 196.708 64.1322 196.344 63.8848C195.992 63.6243 195.536 63.4941 194.977 63.4941C194.456 63.4941 194.013 63.6243 193.648 63.8848C193.284 64.1322 193.01 64.4642 192.828 64.8809C192.659 65.2845 192.574 65.7272 192.574 66.209ZM202.438 83.709V82.2051C202.438 81.1374 202.672 80.1608 203.141 79.2754C203.622 78.39 204.319 77.6803 205.23 77.1465C206.155 76.6126 207.288 76.3457 208.629 76.3457C209.983 76.3457 211.116 76.6126 212.027 77.1465C212.939 77.6803 213.629 78.39 214.098 79.2754C214.566 80.1608 214.801 81.1374 214.801 82.2051V83.709C214.801 84.7767 214.566 85.7533 214.098 86.6387C213.642 87.5241 212.958 88.2337 212.047 88.7676C211.135 89.3014 210.009 89.5684 208.668 89.5684C207.314 89.5684 206.174 89.3014 205.25 88.7676C204.326 88.2337 203.622 87.5241 203.141 86.6387C202.672 85.7533 202.438 84.7767 202.438 83.709ZM206.188 82.2051V83.709C206.188 84.1777 206.292 84.6204 206.5 85.0371C206.708 85.4538 206.995 85.7858 207.359 86.0332C207.737 86.2806 208.173 86.4043 208.668 86.4043C209.293 86.4043 209.781 86.2806 210.133 86.0332C210.484 85.7858 210.725 85.4538 210.855 85.0371C210.999 84.6204 211.07 84.1777 211.07 83.709V82.2051C211.07 81.7363 210.979 81.3001 210.797 80.8965C210.615 80.4798 210.341 80.1478 209.977 79.9004C209.625 79.64 209.176 79.5098 208.629 79.5098C208.082 79.5098 207.626 79.64 207.262 79.9004C206.91 80.1478 206.643 80.4798 206.461 80.8965C206.279 81.3001 206.188 81.7363 206.188 82.2051ZM210.016 64.8027L196.129 87.0293L193.395 85.584L207.281 63.3574L210.016 64.8027Z" fill="#EBEBEB"/>
<path d="M241.246 55.1567L236.754 54.0825L238.375 39.6685H254.352V44.2192H243.004L242.301 50.5278C242.678 50.3065 243.251 50.0721 244.02 49.8247C244.788 49.5643 245.647 49.4341 246.598 49.4341C247.978 49.4341 249.202 49.6489 250.27 50.0786C251.337 50.5083 252.242 51.1333 252.984 51.9536C253.74 52.7739 254.312 53.7765 254.703 54.9614C255.094 56.1463 255.289 57.4875 255.289 58.9849C255.289 60.2479 255.094 61.4523 254.703 62.5981C254.312 63.731 253.72 64.7466 252.926 65.645C252.132 66.5304 251.135 67.2271 249.938 67.7349C248.74 68.2427 247.32 68.4966 245.68 68.4966C244.456 68.4966 243.271 68.3143 242.125 67.9497C240.992 67.5851 239.97 67.0448 239.059 66.3286C238.16 65.6125 237.438 64.7466 236.891 63.731C236.357 62.7023 236.077 61.5304 236.051 60.2153H241.637C241.715 61.0226 241.923 61.7192 242.262 62.3052C242.613 62.8781 243.076 63.3208 243.648 63.6333C244.221 63.9458 244.892 64.1021 245.66 64.1021C246.376 64.1021 246.988 63.9653 247.496 63.6919C248.004 63.4185 248.414 63.0409 248.727 62.5591C249.039 62.0643 249.267 61.4914 249.41 60.8403C249.566 60.1763 249.645 59.4601 249.645 58.6919C249.645 57.9237 249.553 57.2271 249.371 56.6021C249.189 55.9771 248.909 55.4367 248.531 54.981C248.154 54.5252 247.672 54.1737 247.086 53.9263C246.513 53.6789 245.842 53.5552 245.074 53.5552C244.033 53.5552 243.225 53.7179 242.652 54.0435C242.092 54.369 241.624 54.7401 241.246 55.1567ZM258.844 46.6411V45.1372C258.844 44.0565 259.078 43.0734 259.547 42.188C260.016 41.3026 260.706 40.5929 261.617 40.0591C262.529 39.5252 263.648 39.2583 264.977 39.2583C266.344 39.2583 267.483 39.5252 268.395 40.0591C269.319 40.5929 270.009 41.3026 270.465 42.188C270.934 43.0734 271.168 44.0565 271.168 45.1372V46.6411C271.168 47.6958 270.934 48.6659 270.465 49.5513C270.009 50.4367 269.326 51.1463 268.414 51.6802C267.503 52.214 266.37 52.481 265.016 52.481C263.674 52.481 262.542 52.214 261.617 51.6802C260.706 51.1463 260.016 50.4367 259.547 49.5513C259.078 48.6659 258.844 47.6958 258.844 46.6411ZM262.574 45.1372V46.6411C262.574 47.0968 262.659 47.533 262.828 47.9497C263.01 48.3534 263.284 48.6854 263.648 48.9458C264.026 49.1932 264.482 49.3169 265.016 49.3169C265.576 49.3169 266.031 49.1932 266.383 48.9458C266.734 48.6854 266.995 48.3534 267.164 47.9497C267.333 47.533 267.418 47.0968 267.418 46.6411V45.1372C267.418 44.6554 267.327 44.2127 267.145 43.8091C266.975 43.3924 266.708 43.0604 266.344 42.813C265.992 42.5526 265.536 42.4224 264.977 42.4224C264.456 42.4224 264.013 42.5526 263.648 42.813C263.284 43.0604 263.01 43.3924 262.828 43.8091C262.659 44.2127 262.574 44.6554 262.574 45.1372ZM272.438 62.6372V61.1333C272.438 60.0656 272.672 59.089 273.141 58.2036C273.622 57.3182 274.319 56.6086 275.23 56.0747C276.155 55.5409 277.288 55.2739 278.629 55.2739C279.983 55.2739 281.116 55.5409 282.027 56.0747C282.939 56.6086 283.629 57.3182 284.098 58.2036C284.566 59.089 284.801 60.0656 284.801 61.1333V62.6372C284.801 63.7049 284.566 64.6815 284.098 65.5669C283.642 66.4523 282.958 67.1619 282.047 67.6958C281.135 68.2297 280.009 68.4966 278.668 68.4966C277.314 68.4966 276.174 68.2297 275.25 67.6958C274.326 67.1619 273.622 66.4523 273.141 65.5669C272.672 64.6815 272.438 63.7049 272.438 62.6372ZM276.188 61.1333V62.6372C276.188 63.106 276.292 63.5487 276.5 63.9653C276.708 64.382 276.995 64.714 277.359 64.9614C277.737 65.2088 278.173 65.3325 278.668 65.3325C279.293 65.3325 279.781 65.2088 280.133 64.9614C280.484 64.714 280.725 64.382 280.855 63.9653C280.999 63.5487 281.07 63.106 281.07 62.6372V61.1333C281.07 60.6646 280.979 60.2284 280.797 59.8247C280.615 59.408 280.341 59.076 279.977 58.8286C279.625 58.5682 279.176 58.438 278.629 58.438C278.082 58.438 277.626 58.5682 277.262 58.8286C276.91 59.076 276.643 59.408 276.461 59.8247C276.279 60.2284 276.188 60.6646 276.188 61.1333ZM280.016 43.731L266.129 65.9575L263.395 64.5122L277.281 42.2856L280.016 43.731Z" fill="#EBEBEB"/>
<defs>
<linearGradient id="paint0_linear_2426_258" x1="438.941" y1="6.37891" x2="438.941" y2="564.572" gradientUnits="userSpaceOnUse">
<stop offset="0.25" stop-color="#294B77"/>
<stop offset="0.85" stop-color="#375781"/>
</linearGradient>
<linearGradient id="paint1_linear_2426_258" x1="138.5" y1="430" x2="250.5" y2="500" gradientUnits="userSpaceOnUse">
<stop stop-color="#3A759C"/>
<stop offset="1" stop-color="#375781"/>
</linearGradient>
<linearGradient id="paint2_linear_2426_258" x1="86.5" y1="313.5" x2="141.5" y2="439" gradientUnits="userSpaceOnUse">
<stop stop-color="#5B99C2"/>
<stop offset="1" stop-color="#396E96"/>
</linearGradient>
<linearGradient id="paint3_linear_2426_258" x1="108" y1="148" x2="60.5" y2="265" gradientUnits="userSpaceOnUse">
<stop stop-color="#64A8D4"/>
<stop offset="1" stop-color="#5895BE"/>
</linearGradient>
<linearGradient id="paint4_linear_2426_258" x1="145.5" y1="115.5" x2="101" y2="188.5" gradientUnits="userSpaceOnUse">
<stop stop-color="#71B6E4"/>
<stop offset="1" stop-color="#5D9EC8"/>
</linearGradient>
<linearGradient id="paint5_linear_2426_258" x1="227" y1="64" x2="173" y2="92.5" gradientUnits="userSpaceOnUse">
<stop stop-color="#7AC6F8"/>
<stop offset="1" stop-color="#71B6E4"/>
</linearGradient>
</defs>
</svg>
