<svg width="658" height="650" viewBox="0 0 658 650" fill="none" xmlns="http://www.w3.org/2000/svg">
<path d="M329.33 7.06446C412.426 7.04777 492.128 39.5798 550.906 97.5065C609.685 155.433 642.729 234.011 642.77 315.961C642.812 397.911 609.848 476.521 551.127 534.506C492.408 592.49 412.739 625.101 329.643 625.166L329.556 516.998C383.569 516.956 435.353 495.759 473.52 458.069C511.689 420.379 533.116 369.282 533.088 316.015C533.061 262.748 511.583 211.672 473.376 174.019C435.17 136.367 383.365 115.221 329.352 115.233L329.33 7.06446Z" fill="#1A365D" stroke="#111725" stroke-width="3" stroke-linejoin="round"/>
<path d="M329.33 625.165C248.213 625.149 170.264 594.114 111.871 538.586L188.004 460.721C225.959 496.814 276.626 516.986 329.352 516.997L329.33 625.165Z" fill="#2A4A7F" stroke="#111725" stroke-width="3" stroke-linejoin="round"/>
<path d="M111.647 538.373C64.079 493.046 32.2729 434.039 20.7832 369.8L128.798 351.01C136.266 392.766 156.939 431.12 187.859 460.582L111.647 538.373Z" fill="#3C5D9F" stroke="#111725" stroke-width="3" stroke-linejoin="round"/>
<path d="M20.7277 369.494C9.32164 305.346 18.7551 239.286 47.6814 180.74L146.28 228.12C127.479 266.176 121.347 309.116 128.761 350.811L20.7277 369.494Z" fill="#4B72B9" stroke="#111725" stroke-width="3" stroke-linejoin="round"/>
<path d="M47.8203 180.463C70.2602 135.16 103.598 95.9602 144.927 66.2812L209.49 153.723C182.627 173.014 160.957 198.494 146.372 227.94L47.8203 180.463Z" fill="#6187CC" stroke="#111725" stroke-width="3" stroke-linejoin="round"/>
<path d="M145.178 66.1012C171.683 47.1078 201.042 32.3308 232.189 22.3086L266.211 125.141C245.965 131.655 226.882 141.26 209.654 153.606L145.178 66.1012Z" fill="#779EE0" stroke="#111725" stroke-width="3" stroke-linejoin="round"/>
<path d="M232.488 22.2121C263.645 12.2206 296.197 7.10932 328.96 7.06445L329.112 115.233C307.816 115.261 286.658 118.583 266.406 125.078L232.488 22.2121Z" fill="#93B7F0" stroke="#111725" stroke-width="3" stroke-linejoin="round"/>
<path d="M558.364 311.077L553.39 309.888L555.185 293.927H572.876V298.966H560.311L559.532 305.951C559.95 305.706 560.584 305.446 561.436 305.173C562.286 304.885 563.237 304.74 564.29 304.74C565.818 304.74 567.174 304.978 568.356 305.454C569.538 305.93 570.54 306.622 571.362 307.53C572.199 308.438 572.832 309.549 573.265 310.861C573.698 312.173 573.914 313.658 573.914 315.316C573.914 316.714 573.698 318.049 573.265 319.317C572.832 320.571 572.177 321.696 571.297 322.691C570.418 323.672 569.314 324.442 567.989 325.005C566.662 325.567 565.09 325.849 563.274 325.849C561.918 325.849 560.606 325.647 559.337 325.243C558.083 324.839 556.951 324.241 555.942 323.448C554.947 322.655 554.147 321.696 553.541 320.571C552.95 319.433 552.64 318.135 552.611 316.679H558.797C558.883 317.572 559.114 318.344 559.489 318.992C559.878 319.627 560.39 320.117 561.024 320.464C561.658 320.809 562.401 320.982 563.252 320.982C564.044 320.982 564.722 320.831 565.285 320.528C565.847 320.226 566.301 319.807 566.648 319.273C566.993 318.726 567.246 318.092 567.404 317.371C567.577 316.636 567.664 315.842 567.664 314.991C567.664 314.141 567.562 313.369 567.361 312.677C567.159 311.985 566.849 311.387 566.431 310.882C566.013 310.378 565.48 309.988 564.831 309.715C564.196 309.44 563.453 309.303 562.603 309.303C561.45 309.303 560.555 309.483 559.921 309.844C559.301 310.204 558.782 310.615 558.364 311.077ZM599.131 306.902V312.353C599.131 314.718 598.88 316.757 598.375 318.474C597.87 320.175 597.142 321.573 596.19 322.669C595.253 323.75 594.136 324.551 592.838 325.07C591.54 325.588 590.099 325.849 588.513 325.849C587.244 325.849 586.061 325.69 584.966 325.372C583.87 325.041 582.882 324.529 582.003 323.837C581.137 323.145 580.387 322.273 579.753 321.22C579.134 320.154 578.658 318.885 578.326 317.414C577.995 315.944 577.828 314.256 577.828 312.353V306.902C577.828 304.538 578.081 302.513 578.586 300.825C579.105 299.124 579.833 297.733 580.769 296.652C581.722 295.57 582.846 294.777 584.144 294.272C585.441 293.753 586.883 293.494 588.47 293.494C589.738 293.494 590.914 293.66 591.994 293.991C593.091 294.309 594.078 294.806 594.958 295.484C595.837 296.161 596.587 297.034 597.207 298.1C597.827 299.153 598.303 300.414 598.634 301.885C598.966 303.341 599.131 305.014 599.131 306.902ZM592.881 313.175V306.06C592.881 304.92 592.816 303.926 592.687 303.074C592.571 302.224 592.391 301.503 592.146 300.912C591.901 300.306 591.598 299.817 591.238 299.441C590.877 299.067 590.466 298.792 590.005 298.619C589.544 298.447 589.031 298.36 588.47 298.36C587.763 298.36 587.136 298.497 586.587 298.771C586.055 299.045 585.6 299.484 585.225 300.09C584.85 300.681 584.562 301.474 584.361 302.47C584.172 303.45 584.079 304.647 584.079 306.06V313.175C584.079 314.314 584.137 315.316 584.252 316.181C584.382 317.046 584.569 317.788 584.815 318.408C585.074 319.014 585.377 319.511 585.723 319.901C586.084 320.275 586.494 320.55 586.955 320.723C587.431 320.896 587.951 320.982 588.513 320.982C589.205 320.982 589.817 320.846 590.351 320.571C590.899 320.283 591.36 319.836 591.735 319.23C592.124 318.61 592.413 317.803 592.6 316.808C592.787 315.813 592.881 314.603 592.881 313.175ZM603.284 301.647V299.982C603.284 298.786 603.544 297.697 604.063 296.716C604.581 295.736 605.345 294.95 606.355 294.359C607.364 293.768 608.604 293.473 610.075 293.473C611.589 293.473 612.851 293.768 613.86 294.359C614.884 294.95 615.648 295.736 616.153 296.716C616.671 297.697 616.931 298.786 616.931 299.982V301.647C616.931 302.815 616.671 303.889 616.153 304.87C615.648 305.85 614.891 306.637 613.882 307.227C612.872 307.818 611.619 308.114 610.118 308.114C608.633 308.114 607.379 307.818 606.355 307.227C605.345 306.637 604.581 305.85 604.063 304.87C603.544 303.889 603.284 302.815 603.284 301.647ZM607.415 299.982V301.647C607.415 302.152 607.509 302.635 607.696 303.096C607.898 303.544 608.201 303.911 608.604 304.199C609.023 304.473 609.528 304.61 610.118 304.61C610.738 304.61 611.243 304.473 611.633 304.199C612.022 303.911 612.311 303.544 612.498 303.096C612.685 302.635 612.779 302.152 612.779 301.647V299.982C612.779 299.449 612.678 298.958 612.476 298.511C612.288 298.05 611.993 297.683 611.589 297.408C611.2 297.12 610.695 296.976 610.075 296.976C609.498 296.976 609.009 297.12 608.604 297.408C608.201 297.683 607.898 298.05 607.696 298.511C607.509 298.958 607.415 299.449 607.415 299.982ZM618.337 319.36V317.695C618.337 316.513 618.597 315.431 619.115 314.451C619.649 313.47 620.421 312.685 621.429 312.093C622.454 311.502 623.708 311.206 625.193 311.206C626.693 311.206 627.947 311.502 628.956 312.093C629.966 312.685 630.73 313.47 631.248 314.451C631.767 315.431 632.028 316.513 632.028 317.695V319.36C632.028 320.542 631.767 321.624 631.248 322.604C630.744 323.585 629.987 324.37 628.978 324.962C627.968 325.553 626.721 325.849 625.236 325.849C623.737 325.849 622.475 325.553 621.452 324.962C620.427 324.37 619.649 323.585 619.115 322.604C618.597 321.624 618.337 320.542 618.337 319.36ZM622.489 317.695V319.36C622.489 319.879 622.604 320.37 622.836 320.831C623.066 321.292 623.384 321.66 623.787 321.934C624.205 322.208 624.688 322.345 625.236 322.345C625.928 322.345 626.469 322.208 626.859 321.934C627.247 321.66 627.514 321.292 627.658 320.831C627.816 320.37 627.896 319.879 627.896 319.36V317.695C627.896 317.176 627.795 316.693 627.594 316.246C627.391 315.784 627.089 315.416 626.685 315.143C626.296 314.854 625.799 314.71 625.193 314.71C624.588 314.71 624.083 314.854 623.678 315.143C623.29 315.416 622.994 315.784 622.793 316.246C622.59 316.693 622.489 317.176 622.489 317.695ZM626.728 298.425L611.352 323.037L608.323 321.436L623.701 296.825L626.728 298.425Z" fill="#EBEBEB"/>
<path d="M186.968 532.87V564.425H180.739V540.05L173.256 542.429V537.52L186.297 532.87H186.968ZM218.76 559.558V564.425H197.218V560.272L207.406 549.349C208.429 548.211 209.236 547.209 209.827 546.344C210.419 545.464 210.844 544.679 211.104 543.987C211.378 543.28 211.515 542.609 211.515 541.975C211.515 541.023 211.356 540.208 211.039 539.531C210.722 538.839 210.253 538.306 209.633 537.931C209.028 537.555 208.277 537.368 207.384 537.368C206.432 537.368 205.611 537.6 204.919 538.06C204.241 538.522 203.722 539.163 203.361 539.985C203.015 540.808 202.842 541.737 202.842 542.775H196.592C196.592 540.901 197.039 539.185 197.933 537.628C198.826 536.056 200.089 534.809 201.717 533.887C203.346 532.949 205.279 532.48 207.513 532.48C209.72 532.48 211.579 532.841 213.093 533.562C214.622 534.269 215.775 535.292 216.553 536.633C217.347 537.96 217.744 539.545 217.744 541.391C217.744 542.429 217.578 543.445 217.245 544.441C216.914 545.421 216.438 546.402 215.818 547.382C215.212 548.348 214.477 549.328 213.612 550.323C212.748 551.318 211.789 552.349 210.737 553.416L205.264 559.558H218.76ZM223.215 561.418C223.215 560.496 223.533 559.724 224.166 559.104C224.815 558.484 225.673 558.174 226.741 558.174C227.807 558.174 228.658 558.484 229.292 559.104C229.941 559.724 230.265 560.496 230.265 561.418C230.265 562.341 229.941 563.112 229.292 563.733C228.658 564.353 227.807 564.663 226.741 564.663C225.673 564.663 224.815 564.353 224.166 563.733C223.533 563.112 223.215 562.341 223.215 561.418ZM257.041 559.558V564.425H235.5V560.272L245.686 549.349C246.71 548.211 247.518 547.209 248.109 546.344C248.699 545.464 249.124 544.679 249.384 543.987C249.658 543.28 249.795 542.609 249.795 541.975C249.795 541.023 249.637 540.208 249.319 539.531C249.002 538.839 248.534 538.306 247.914 537.931C247.308 537.555 246.559 537.368 245.664 537.368C244.713 537.368 243.891 537.6 243.199 538.06C242.521 538.522 242.002 539.163 241.642 539.985C241.295 540.808 241.123 541.737 241.123 542.775H234.872C234.872 540.901 235.319 539.185 236.213 537.628C237.108 536.056 238.369 534.809 239.998 533.887C241.628 532.949 243.559 532.48 245.795 532.48C248 532.48 249.861 532.841 251.374 533.562C252.902 534.269 254.056 535.292 254.835 536.633C255.628 537.96 256.024 539.545 256.024 541.391C256.024 542.429 255.858 543.445 255.527 544.441C255.195 545.421 254.72 546.402 254.099 547.382C253.494 548.348 252.759 549.328 251.893 550.323C251.028 551.318 250.069 552.349 249.017 553.416L243.544 559.558H257.041ZM260.846 540.656V538.99C260.846 537.793 261.107 536.705 261.626 535.725C262.144 534.744 262.908 533.959 263.918 533.367C264.927 532.776 266.167 532.48 267.638 532.48C269.151 532.48 270.414 532.776 271.422 533.367C272.447 533.959 273.211 534.744 273.716 535.725C274.234 536.705 274.494 537.793 274.494 538.99V540.656C274.494 541.824 274.234 542.898 273.716 543.878C273.211 544.859 272.453 545.644 271.445 546.236C270.435 546.827 269.18 547.123 267.681 547.123C266.196 547.123 264.941 546.827 263.918 546.236C262.908 545.644 262.144 544.859 261.626 543.878C261.107 542.898 260.846 541.824 260.846 540.656ZM264.978 538.99V540.656C264.978 541.161 265.072 541.644 265.259 542.105C265.461 542.552 265.764 542.919 266.167 543.208C266.586 543.482 267.09 543.619 267.681 543.619C268.301 543.619 268.806 543.482 269.195 543.208C269.584 542.919 269.872 542.552 270.06 542.105C270.248 541.644 270.342 541.161 270.342 540.656V538.99C270.342 538.457 270.241 537.967 270.038 537.52C269.851 537.058 269.556 536.691 269.151 536.417C268.763 536.128 268.258 535.984 267.638 535.984C267.061 535.984 266.571 536.128 266.167 536.417C265.764 536.691 265.461 537.058 265.259 537.52C265.072 537.967 264.978 538.457 264.978 538.99ZM275.899 558.369V556.703C275.899 555.521 276.16 554.44 276.678 553.459C277.212 552.479 277.983 551.693 278.992 551.102C280.016 550.511 281.27 550.215 282.756 550.215C284.255 550.215 285.51 550.511 286.519 551.102C287.527 551.693 288.293 552.479 288.811 553.459C289.33 554.44 289.589 555.521 289.589 556.703V558.369C289.589 559.551 289.33 560.632 288.811 561.613C288.307 562.593 287.55 563.379 286.541 563.971C285.531 564.561 284.284 564.856 282.799 564.856C281.299 564.856 280.037 564.561 279.014 563.971C277.99 563.379 277.212 562.593 276.678 561.613C276.16 560.632 275.899 559.551 275.899 558.369ZM280.052 556.703V558.369C280.052 558.888 280.167 559.377 280.398 559.839C280.629 560.301 280.945 560.669 281.35 560.942C281.768 561.217 282.251 561.353 282.799 561.353C283.491 561.353 284.032 561.217 284.42 560.942C284.81 560.669 285.077 560.301 285.221 559.839C285.379 559.377 285.459 558.888 285.459 558.369V556.703C285.459 556.184 285.358 555.701 285.157 555.255C284.954 554.793 284.652 554.425 284.248 554.151C283.859 553.863 283.361 553.719 282.756 553.719C282.15 553.719 281.645 553.863 281.241 554.151C280.852 554.425 280.557 554.793 280.355 555.255C280.153 555.701 280.052 556.184 280.052 556.703ZM284.291 537.434L268.914 562.045L265.886 560.445L281.263 535.832L284.291 537.434Z" fill="#EBEBEB"/>
<path d="M79.3564 419.416V450.97H73.1277V426.597L65.6445 428.976V424.067L78.6859 419.416H79.3564ZM110.802 432.458V437.908C110.802 440.272 110.55 442.312 110.046 444.029C109.541 445.729 108.813 447.128 107.861 448.224C106.924 449.306 105.807 450.106 104.509 450.625C103.211 451.144 101.77 451.403 100.184 451.403C98.9148 451.403 97.7325 451.245 96.6367 450.927C95.5409 450.596 94.5533 450.084 93.6738 449.392C92.8087 448.7 92.0589 447.828 91.4245 446.775C90.8045 445.708 90.3287 444.439 89.9971 442.969C89.6655 441.498 89.4996 439.811 89.4996 437.908V432.458C89.4996 430.093 89.752 428.068 90.2566 426.38C90.7757 424.679 91.5038 423.287 92.441 422.206C93.3926 421.125 94.5173 420.332 95.8148 419.827C97.1125 419.309 98.5544 419.048 100.14 419.048C101.409 419.048 102.584 419.214 103.666 419.547C104.761 419.863 105.749 420.361 106.629 421.038C107.508 421.716 108.258 422.588 108.878 423.656C109.498 424.708 109.974 425.969 110.305 427.44C110.637 428.897 110.802 430.569 110.802 432.458ZM104.552 438.73V431.614C104.552 430.475 104.488 429.48 104.358 428.63C104.242 427.779 104.062 427.058 103.817 426.467C103.572 425.862 103.269 425.371 102.909 424.996C102.548 424.622 102.137 424.348 101.676 424.174C101.214 424.001 100.703 423.915 100.14 423.915C99.4339 423.915 98.8067 424.052 98.2588 424.326C97.7253 424.599 97.2711 425.04 96.8962 425.645C96.5214 426.236 96.233 427.029 96.0312 428.024C95.8437 429.004 95.7501 430.201 95.7501 431.614V438.73C95.7501 439.868 95.8076 440.87 95.923 441.736C96.0528 442.601 96.2403 443.343 96.4853 443.963C96.7449 444.569 97.0476 445.066 97.3937 445.456C97.7541 445.831 98.165 446.105 98.6264 446.278C99.1023 446.45 99.6213 446.538 100.184 446.538C100.876 446.538 101.488 446.4 102.022 446.126C102.57 445.838 103.031 445.391 103.406 444.786C103.795 444.166 104.084 443.358 104.271 442.363C104.459 441.369 104.552 440.157 104.552 438.73ZM114.955 427.203V425.537C114.955 424.34 115.215 423.252 115.734 422.272C116.252 421.291 117.016 420.505 118.026 419.914C119.035 419.323 120.275 419.027 121.746 419.027C123.26 419.027 124.522 419.323 125.531 419.914C126.555 420.505 127.319 421.291 127.824 422.272C128.342 423.252 128.602 424.34 128.602 425.537V427.203C128.602 428.37 128.342 429.444 127.824 430.425C127.319 431.405 126.562 432.191 125.553 432.783C124.543 433.374 123.289 433.668 121.789 433.668C120.304 433.668 119.05 433.374 118.026 432.783C117.016 432.191 116.252 431.405 115.734 430.425C115.215 429.444 114.955 428.37 114.955 427.203ZM119.086 425.537V427.203C119.086 427.707 119.18 428.19 119.367 428.651C119.569 429.098 119.872 429.466 120.275 429.754C120.694 430.029 121.199 430.165 121.789 430.165C122.409 430.165 122.914 430.029 123.304 429.754C123.693 429.466 123.982 429.098 124.169 428.651C124.356 428.19 124.45 427.707 124.45 427.203V425.537C124.45 425.004 124.349 424.513 124.147 424.067C123.959 423.605 123.664 423.237 123.26 422.964C122.871 422.675 122.366 422.531 121.746 422.531C121.169 422.531 120.679 422.675 120.275 422.964C119.872 423.237 119.569 423.605 119.367 424.067C119.18 424.513 119.086 425.004 119.086 425.537ZM130.008 444.916V443.25C130.008 442.067 130.268 440.987 130.786 440.006C131.32 439.026 132.092 438.239 133.1 437.648C134.125 437.057 135.379 436.761 136.864 436.761C138.363 436.761 139.618 437.057 140.627 437.648C141.637 438.239 142.401 439.026 142.919 440.006C143.438 440.987 143.699 442.067 143.699 443.25V444.916C143.699 446.097 143.438 447.179 142.919 448.159C142.415 449.14 141.658 449.925 140.649 450.516C139.639 451.108 138.392 451.403 136.907 451.403C135.408 451.403 134.146 451.108 133.123 450.516C132.098 449.925 131.32 449.14 130.786 448.159C130.268 447.179 130.008 446.097 130.008 444.916ZM134.16 443.25V444.916C134.16 445.434 134.275 445.924 134.507 446.386C134.737 446.848 135.055 447.215 135.458 447.489C135.876 447.762 136.359 447.9 136.907 447.9C137.599 447.9 138.14 447.762 138.53 447.489C138.918 447.215 139.185 446.848 139.329 446.386C139.487 445.924 139.567 445.434 139.567 444.916V443.25C139.567 442.731 139.466 442.248 139.265 441.801C139.062 441.34 138.76 440.972 138.356 440.698C137.967 440.41 137.47 440.266 136.864 440.266C136.258 440.266 135.754 440.41 135.349 440.698C134.961 440.972 134.665 441.34 134.463 441.801C134.261 442.248 134.16 442.731 134.16 443.25ZM138.399 423.979L123.023 448.592L119.994 446.992L135.371 422.379L138.399 423.979Z" fill="#EBEBEB"/>
<path d="M53.8877 268.306V299.86H47.659V275.486L40.1758 277.864V272.955L53.2172 268.306H53.8877ZM85.334 281.347V286.797C85.334 289.161 85.0816 291.202 84.577 292.917C84.0724 294.619 83.3442 296.018 82.3926 297.113C81.4554 298.195 80.338 298.994 79.0404 299.514C77.7427 300.033 76.3008 300.292 74.7149 300.292C73.446 300.292 72.2637 300.134 71.1679 299.817C70.0721 299.485 69.0845 298.973 68.2051 298.281C67.3399 297.589 66.5901 296.716 65.9558 295.664C65.3358 294.597 64.8599 293.328 64.5283 291.858C64.1968 290.387 64.0309 288.701 64.0309 286.797V281.347C64.0309 278.982 64.2833 276.956 64.7879 275.27C65.307 273.568 66.035 272.177 66.9723 271.095C67.9238 270.014 69.0485 269.22 70.3461 268.717C71.6438 268.197 73.0856 267.938 74.6716 267.938C75.9404 267.938 77.1155 268.103 78.1969 268.435C79.2927 268.752 80.2803 269.249 81.1599 269.927C82.0393 270.605 82.7891 271.477 83.4091 272.545C84.0291 273.597 84.5049 274.859 84.8365 276.329C85.1682 277.786 85.334 279.458 85.334 281.347ZM79.0837 287.619V280.503C79.0837 279.365 79.0188 278.369 78.889 277.519C78.7736 276.668 78.5934 275.947 78.3483 275.356C78.1032 274.75 77.8004 274.26 77.4399 273.886C77.0795 273.51 76.6686 273.237 76.2072 273.063C75.7457 272.89 75.2339 272.804 74.6716 272.804C73.9652 272.804 73.338 272.941 72.7901 273.215C72.2565 273.489 71.8023 273.929 71.4275 274.534C71.0527 275.125 70.7642 275.919 70.5624 276.913C70.375 277.893 70.2813 279.09 70.2813 280.503V287.619C70.2813 288.758 70.3389 289.76 70.4543 290.625C70.584 291.49 70.7715 292.233 71.0166 292.853C71.2761 293.458 71.5789 293.956 71.9249 294.345C72.2853 294.72 72.6963 294.993 73.1577 295.166C73.6335 295.34 74.1525 295.426 74.7149 295.426C75.407 295.426 76.0197 295.289 76.5532 295.016C77.1011 294.727 77.5625 294.28 77.9373 293.675C78.3267 293.055 78.615 292.247 78.8025 291.252C78.9899 290.257 79.0837 289.046 79.0837 287.619ZM89.4864 276.091V274.426C89.4864 273.229 89.746 272.14 90.265 271.16C90.7841 270.179 91.5483 269.394 92.5575 268.803C93.5668 268.212 94.8068 267.916 96.2774 267.916C97.7914 267.916 99.0529 268.212 100.062 268.803C101.086 269.394 101.85 270.179 102.355 271.16C102.874 272.14 103.133 273.229 103.133 274.426V276.091C103.133 277.259 102.874 278.334 102.355 279.314C101.85 280.294 101.093 281.08 100.084 281.671C99.0746 282.263 97.8202 282.558 96.3207 282.558C94.8356 282.558 93.5812 282.263 92.5575 281.671C91.5483 281.08 90.7841 280.294 90.265 279.314C89.746 278.334 89.4864 277.259 89.4864 276.091ZM93.6173 274.426V276.091C93.6173 276.596 93.711 277.079 93.8984 277.54C94.1003 277.987 94.4031 278.355 94.8068 278.643C95.2249 278.917 95.7295 279.055 96.3207 279.055C96.9407 279.055 97.4453 278.917 97.8347 278.643C98.2239 278.355 98.5122 277.987 98.6997 277.54C98.8872 277.079 98.9809 276.596 98.9809 276.091V274.426C98.9809 273.892 98.88 273.402 98.6781 272.955C98.4906 272.494 98.1951 272.126 97.7914 271.853C97.402 271.564 96.8974 271.42 96.2774 271.42C95.7007 271.42 95.2105 271.564 94.8068 271.853C94.4031 272.126 94.1003 272.494 93.8984 272.955C93.711 273.402 93.6173 273.892 93.6173 274.426ZM104.539 293.804V292.139C104.539 290.956 104.799 289.875 105.318 288.894C105.851 287.914 106.623 287.128 107.632 286.537C108.656 285.947 109.91 285.651 111.395 285.651C112.895 285.651 114.149 285.947 115.158 286.537C116.168 287.128 116.932 287.914 117.45 288.894C117.97 289.875 118.23 290.956 118.23 292.139V293.804C118.23 294.987 117.97 296.068 117.45 297.049C116.946 298.029 116.189 298.815 115.18 299.405C114.17 299.996 112.924 300.292 111.439 300.292C109.939 300.292 108.677 299.996 107.654 299.405C106.63 298.815 105.851 298.029 105.318 297.049C104.799 296.068 104.539 294.987 104.539 293.804ZM108.692 292.139V293.804C108.692 294.324 108.807 294.813 109.038 295.275C109.268 295.736 109.585 296.104 109.989 296.378C110.407 296.651 110.89 296.788 111.439 296.788C112.131 296.788 112.671 296.651 113.061 296.378C113.449 296.104 113.716 295.736 113.86 295.275C114.019 294.813 114.098 294.324 114.098 293.804V292.139C114.098 291.619 113.998 291.137 113.796 290.689C113.593 290.229 113.291 289.861 112.887 289.586C112.498 289.298 112.001 289.155 111.395 289.155C110.79 289.155 110.285 289.298 109.881 289.586C109.492 289.861 109.196 290.229 108.994 290.689C108.793 291.137 108.692 291.619 108.692 292.139ZM112.93 272.869L97.5535 297.481L94.5256 295.88L109.903 271.268L112.93 272.869Z" fill="#EBEBEB"/>
<path d="M111.032 137.26V140.612L98.8557 168.749H92.2809L104.457 142.125H88.7773V137.26H111.032ZM115.639 165.742C115.639 164.82 115.956 164.048 116.59 163.428C117.239 162.808 118.097 162.499 119.164 162.499C120.231 162.499 121.081 162.808 121.716 163.428C122.365 164.048 122.689 164.82 122.689 165.742C122.689 166.666 122.365 167.437 121.716 168.057C121.081 168.677 120.231 168.987 119.164 168.987C118.097 168.987 117.239 168.677 116.59 168.057C115.956 167.437 115.639 166.666 115.639 165.742ZM149.14 160.119C149.14 162.095 148.678 163.76 147.756 165.116C146.832 166.457 145.563 167.473 143.949 168.165C142.349 168.843 140.532 169.182 138.499 169.182C136.466 169.182 134.642 168.843 133.027 168.165C131.412 167.473 130.136 166.457 129.199 165.116C128.261 163.76 127.793 162.095 127.793 160.119C127.793 158.793 128.06 157.596 128.594 156.529C129.127 155.448 129.869 154.525 130.821 153.761C131.787 152.983 132.919 152.391 134.217 151.987C135.514 151.57 136.927 151.36 138.455 151.36C140.503 151.36 142.334 151.72 143.949 152.442C145.563 153.163 146.832 154.18 147.756 155.491C148.678 156.803 149.14 158.347 149.14 160.119ZM142.868 159.709C142.868 158.743 142.68 157.914 142.306 157.222C141.945 156.515 141.433 155.975 140.77 155.599C140.106 155.225 139.335 155.037 138.455 155.037C137.576 155.037 136.804 155.225 136.141 155.599C135.478 155.975 134.96 156.515 134.584 157.222C134.224 157.914 134.044 158.743 134.044 159.709C134.044 160.66 134.224 161.483 134.584 162.175C134.96 162.867 135.478 163.399 136.141 163.775C136.819 164.135 137.605 164.315 138.499 164.315C139.393 164.315 140.164 164.135 140.813 163.775C141.476 163.399 141.981 162.867 142.327 162.175C142.688 161.483 142.868 160.66 142.868 159.709ZM148.469 145.608C148.469 147.208 148.044 148.628 147.193 149.868C146.343 151.094 145.16 152.053 143.647 152.745C142.146 153.437 140.431 153.782 138.499 153.782C136.552 153.782 134.822 153.437 133.309 152.745C131.795 152.053 130.612 151.094 129.762 149.868C128.91 148.628 128.485 147.208 128.485 145.608C128.485 143.704 128.91 142.104 129.762 140.807C130.627 139.494 131.809 138.499 133.309 137.821C134.822 137.144 136.538 136.805 138.455 136.805C140.402 136.805 142.125 137.144 143.624 137.821C145.138 138.499 146.321 139.494 147.171 140.807C148.037 142.104 148.469 143.704 148.469 145.608ZM142.24 145.889C142.24 145.038 142.089 144.302 141.786 143.682C141.484 143.048 141.051 142.558 140.488 142.212C139.94 141.866 139.263 141.692 138.455 141.692C137.677 141.692 137.007 141.859 136.444 142.191C135.896 142.522 135.471 143.005 135.168 143.639C134.88 144.259 134.736 145.009 134.736 145.889C134.736 146.74 134.88 147.489 135.168 148.138C135.471 148.773 135.903 149.27 136.466 149.63C137.028 149.991 137.706 150.171 138.499 150.171C139.291 150.171 139.962 149.991 140.511 149.63C141.072 149.27 141.498 148.773 141.786 148.138C142.089 147.489 142.24 146.74 142.24 145.889ZM153.27 144.98V143.315C153.27 142.119 153.529 141.03 154.049 140.049C154.568 139.069 155.332 138.283 156.342 137.692C157.351 137.1 158.591 136.805 160.062 136.805C161.575 136.805 162.836 137.1 163.846 137.692C164.87 138.283 165.634 139.069 166.139 140.049C166.658 141.03 166.917 142.119 166.917 143.315V144.98C166.917 146.148 166.658 147.222 166.139 148.202C165.634 149.183 164.877 149.969 163.867 150.56C162.859 151.151 161.604 151.447 160.105 151.447C158.62 151.447 157.365 151.151 156.342 150.56C155.332 149.969 154.568 149.183 154.049 148.202C153.529 147.222 153.27 146.148 153.27 144.98ZM157.402 143.315V144.98C157.402 145.485 157.495 145.968 157.682 146.43C157.885 146.876 158.187 147.243 158.591 147.532C159.008 147.806 159.513 147.943 160.105 147.943C160.725 147.943 161.23 147.806 161.618 147.532C162.008 147.243 162.296 146.876 162.483 146.43C162.671 145.968 162.765 145.485 162.765 144.98V143.315C162.765 142.782 162.664 142.291 162.462 141.844C162.275 141.383 161.979 141.015 161.575 140.741C161.185 140.453 160.682 140.308 160.062 140.308C159.485 140.308 158.994 140.453 158.591 140.741C158.187 141.015 157.885 141.383 157.682 141.844C157.495 142.291 157.402 142.782 157.402 143.315ZM168.323 162.693V161.027C168.323 159.846 168.582 158.764 169.102 157.784C169.635 156.803 170.406 156.018 171.416 155.427C172.439 154.835 173.694 154.54 175.179 154.54C176.678 154.54 177.933 154.835 178.943 155.427C179.951 156.018 180.715 156.803 181.235 157.784C181.754 158.764 182.013 159.846 182.013 161.027V162.693C182.013 163.875 181.754 164.957 181.235 165.937C180.73 166.917 179.973 167.704 178.964 168.295C177.955 168.886 176.707 169.182 175.222 169.182C173.723 169.182 172.461 168.886 171.437 168.295C170.414 167.704 169.635 166.917 169.102 165.937C168.582 164.957 168.323 163.875 168.323 162.693ZM172.476 161.027V162.693C172.476 163.212 172.591 163.703 172.821 164.163C173.053 164.625 173.369 164.993 173.774 165.267C174.191 165.541 174.674 165.678 175.222 165.678C175.914 165.678 176.455 165.541 176.844 165.267C177.234 164.993 177.501 164.625 177.645 164.163C177.803 163.703 177.883 163.212 177.883 162.693V161.027C177.883 160.509 177.781 160.025 177.579 159.579C177.378 159.117 177.074 158.75 176.671 158.476C176.282 158.187 175.784 158.043 175.179 158.043C174.573 158.043 174.069 158.187 173.665 158.476C173.275 158.75 172.981 159.117 172.778 159.579C172.577 160.025 172.476 160.509 172.476 161.027ZM176.715 141.758L161.337 166.37L158.31 164.769L173.687 140.158L176.715 141.758Z" fill="#EBEBEB"/>
<path d="M189.626 84.4094L184.651 83.2199L186.446 67.2588H204.138V72.298H191.572L190.794 79.2837C191.211 79.0386 191.846 78.7791 192.697 78.5051C193.548 78.2168 194.499 78.0726 195.552 78.0726C197.08 78.0726 198.435 78.3105 199.618 78.7863C200.8 79.2621 201.802 79.9542 202.623 80.8625C203.461 81.7709 204.094 82.8811 204.527 84.1931C204.96 85.5052 205.176 86.9902 205.176 88.6483C205.176 90.047 204.96 91.3807 204.527 92.6494C204.094 93.9038 203.438 95.0285 202.559 96.0233C201.68 97.0038 200.576 97.7751 199.25 98.3374C197.924 98.8999 196.351 99.181 194.535 99.181C193.18 99.181 191.868 98.9791 190.599 98.5754C189.344 98.1717 188.213 97.5733 187.204 96.7803C186.208 95.9872 185.409 95.0285 184.803 93.9038C184.212 92.7648 183.902 91.4672 183.873 90.0109H190.059C190.145 90.9049 190.375 91.6762 190.751 92.3251C191.139 92.9595 191.652 93.4497 192.285 93.7957C192.92 94.1418 193.663 94.3147 194.513 94.3147C195.306 94.3147 195.984 94.1634 196.546 93.8606C197.109 93.5578 197.563 93.1397 197.91 92.6063C198.255 92.0583 198.507 91.424 198.666 90.703C198.839 89.9676 198.926 89.1747 198.926 88.324C198.926 87.4733 198.824 86.7019 198.623 86.0098C198.421 85.3177 198.111 84.7194 197.692 84.2147C197.275 83.7101 196.741 83.3208 196.092 83.0468C195.458 82.773 194.715 82.636 193.864 82.636C192.712 82.636 191.817 82.8162 191.182 83.1766C190.562 83.5371 190.044 83.948 189.626 84.4094ZM209.112 74.9798V73.3145C209.112 72.1179 209.371 71.0292 209.891 70.0488C210.41 69.0683 211.174 68.2825 212.183 67.6914C213.193 67.1002 214.432 66.8047 215.904 66.8047C217.417 66.8047 218.679 67.1002 219.688 67.6914C220.712 68.2825 221.476 69.0683 221.981 70.0488C222.5 71.0292 222.759 72.1179 222.759 73.3145V74.9798C222.759 76.1477 222.5 77.2219 221.981 78.2023C221.476 79.1828 220.719 79.9686 219.709 80.5598C218.701 81.1509 217.446 81.4464 215.947 81.4464C214.461 81.4464 213.207 81.1509 212.183 80.5598C211.174 79.9686 210.41 79.1828 209.891 78.2023C209.371 77.2219 209.112 76.1477 209.112 74.9798ZM213.243 73.3145V74.9798C213.243 75.4845 213.337 75.9675 213.524 76.4289C213.725 76.8758 214.029 77.2436 214.432 77.5319C214.85 77.8059 215.355 77.9428 215.947 77.9428C216.567 77.9428 217.071 77.8059 217.46 77.5319C217.849 77.2436 218.138 76.8758 218.325 76.4289C218.512 75.9675 218.607 75.4845 218.607 74.9798V73.3145C218.607 72.781 218.506 72.2908 218.304 71.8439C218.116 71.3825 217.82 71.0148 217.417 70.7409C217.027 70.4524 216.523 70.3083 215.904 70.3083C215.327 70.3083 214.836 70.4524 214.432 70.7409C214.029 71.0148 213.725 71.3825 213.524 71.8439C213.337 72.2908 213.243 72.781 213.243 73.3145ZM224.165 92.6927V91.0274C224.165 89.8451 224.424 88.7637 224.944 87.7833C225.476 86.8029 226.248 86.017 227.257 85.4259C228.281 84.8347 229.536 84.5392 231.021 84.5392C232.52 84.5392 233.775 84.8347 234.783 85.4259C235.793 86.017 236.557 86.8029 237.077 87.7833C237.595 88.7637 237.855 89.8451 237.855 91.0274V92.6927C237.855 93.875 237.595 94.9564 237.077 95.9369C236.572 96.9173 235.814 97.7031 234.806 98.2943C233.796 98.8853 232.549 99.181 231.064 99.181C229.565 99.181 228.302 98.8853 227.279 98.2943C226.256 97.7031 225.476 96.9173 224.944 95.9369C224.424 94.9564 224.165 93.875 224.165 92.6927ZM228.318 91.0274V92.6927C228.318 93.2117 228.433 93.702 228.663 94.1634C228.894 94.6248 229.211 94.9924 229.614 95.2664C230.033 95.5403 230.516 95.6773 231.064 95.6773C231.756 95.6773 232.296 95.5403 232.686 95.2664C233.075 94.9924 233.342 94.6248 233.486 94.1634C233.645 93.702 233.724 93.2117 233.724 92.6927V91.0274C233.724 90.5083 233.623 90.0253 233.421 89.5784C233.22 89.117 232.917 88.7493 232.513 88.4754C232.124 88.187 231.626 88.0429 231.021 88.0429C230.415 88.0429 229.91 88.187 229.507 88.4754C229.117 88.7493 228.822 89.117 228.62 89.5784C228.419 90.0253 228.318 90.5083 228.318 91.0274ZM232.557 71.7573L217.179 96.3694L214.152 94.769L229.528 70.1569L232.557 71.7573Z" fill="#EBEBEB"/>
<path d="M267.137 61.0774L262.163 59.8879L263.958 43.9269H281.65V48.966H269.084L268.306 55.9517C268.723 55.7066 269.358 55.4471 270.209 55.1731C271.059 54.8848 272.011 54.7406 273.064 54.7406C274.592 54.7406 275.947 54.9784 277.13 55.4543C278.311 55.9301 279.313 56.6221 280.135 57.5305C280.972 58.4388 281.606 59.549 282.039 60.8611C282.472 62.1732 282.687 63.6583 282.687 65.3164C282.687 66.715 282.472 68.0486 282.039 69.3174C281.606 70.5719 280.95 71.6965 280.071 72.6913C279.192 73.6717 278.088 74.4432 276.762 75.0055C275.436 75.5678 273.863 75.849 272.047 75.849C270.692 75.849 269.38 75.6471 268.111 75.2434C266.856 74.8396 265.724 74.2414 264.716 73.4483C263.72 72.6553 262.921 71.6965 262.315 70.5719C261.724 69.4328 261.414 68.1351 261.385 66.6789H267.57C267.657 67.5728 267.887 68.3442 268.262 68.9931C268.651 69.6275 269.164 70.1177 269.797 70.4637C270.432 70.8098 271.175 70.9828 272.025 70.9828C272.818 70.9828 273.496 70.8313 274.058 70.5286C274.621 70.2259 275.075 69.8077 275.421 69.2742C275.767 68.7263 276.019 68.0919 276.178 67.371C276.35 66.6357 276.438 65.8426 276.438 64.992C276.438 64.1413 276.336 63.37 276.134 62.6779C275.933 61.9858 275.623 61.3874 275.204 60.8828C274.787 60.3781 274.253 59.9889 273.604 59.7149C272.97 59.441 272.227 59.304 271.376 59.304C270.223 59.304 269.329 59.4841 268.694 59.8447C268.074 60.2051 267.556 60.616 267.137 61.0774ZM286.624 51.6478V49.9825C286.624 48.7858 286.883 47.6972 287.402 46.7168C287.922 45.7364 288.686 44.9505 289.695 44.3594C290.705 43.7682 291.944 43.4727 293.415 43.4727C294.929 43.4727 296.19 43.7682 297.2 44.3594C298.223 44.9505 298.987 45.7364 299.492 46.7168C300.012 47.6972 300.271 48.7858 300.271 49.9825V51.6478C300.271 52.8157 300.012 53.8899 299.492 54.8704C298.987 55.8508 298.231 56.6365 297.221 57.2277C296.212 57.8188 294.958 58.1145 293.458 58.1145C291.972 58.1145 290.719 57.8188 289.695 57.2277C288.686 56.6365 287.922 55.8508 287.402 54.8704C286.883 53.8899 286.624 52.8157 286.624 51.6478ZM290.754 49.9825V51.6478C290.754 52.1524 290.848 52.6354 291.036 53.0969C291.237 53.5439 291.541 53.9115 291.944 54.1999C292.362 54.4738 292.867 54.6108 293.458 54.6108C294.079 54.6108 294.582 54.4738 294.972 54.1999C295.361 53.9115 295.65 53.5439 295.837 53.0969C296.024 52.6354 296.118 52.1524 296.118 51.6478V49.9825C296.118 49.449 296.017 48.9588 295.816 48.5119C295.628 48.0505 295.332 47.6828 294.929 47.4089C294.539 47.1205 294.034 46.9763 293.415 46.9763C292.838 46.9763 292.348 47.1205 291.944 47.4089C291.541 47.6828 291.237 48.0505 291.036 48.5119C290.848 48.9588 290.754 49.449 290.754 49.9825ZM301.677 69.3607V67.6954C301.677 66.5131 301.936 65.4317 302.455 64.4513C302.988 63.4708 303.76 62.6851 304.769 62.0939C305.793 61.5028 307.048 61.2071 308.532 61.2071C310.032 61.2071 311.286 61.5028 312.295 62.0939C313.305 62.6851 314.069 63.4708 314.588 64.4513C315.107 65.4317 315.367 66.5131 315.367 67.6954V69.3607C315.367 70.543 315.107 71.6244 314.588 72.6048C314.083 73.5853 313.326 74.371 312.317 74.9622C311.307 75.5534 310.061 75.849 308.576 75.849C307.076 75.849 305.814 75.5534 304.791 74.9622C303.768 74.371 302.988 73.5853 302.455 72.6048C301.936 71.6244 301.677 70.543 301.677 69.3607ZM305.829 67.6954V69.3607C305.829 69.8798 305.945 70.37 306.175 70.8313C306.405 71.2928 306.723 71.6604 307.126 71.9344C307.545 72.2083 308.028 72.3453 308.576 72.3453C309.268 72.3453 309.808 72.2083 310.198 71.9344C310.587 71.6604 310.853 71.2928 310.997 70.8313C311.157 70.37 311.235 69.8798 311.235 69.3607V67.6954C311.235 67.1764 311.135 66.6934 310.933 66.2464C310.732 65.7849 310.428 65.4173 310.025 65.1433C309.635 64.855 309.138 64.7108 308.532 64.7108C307.927 64.7108 307.422 64.855 307.019 65.1433C306.629 65.4173 306.333 65.7849 306.132 66.2464C305.93 66.6934 305.829 67.1764 305.829 67.6954ZM310.068 48.4254L294.691 73.0374L291.663 71.4369L307.04 46.8249L310.068 48.4254Z" fill="#EBEBEB"/>
<path d="M300.857 147.107C290.79 148.884 272.254 154.375 269.058 156.474C265.702 158.735 267.46 163.096 283.12 191.359C297.341 217.2 297.341 217.2 328.98 217.2C360.46 217.2 360.46 217.2 375.48 190.552C383.63 175.855 390.341 162.289 390.341 160.512C390.341 156.474 383.63 153.244 367.331 149.207C355.346 146.3 312.681 144.846 300.857 147.107Z" fill="url(#paint0_linear_2464_676)"/>
<path d="M230.388 176.662C210.893 189.743 190.439 211.87 194.434 215.907C195.073 216.553 212.81 217.361 233.903 217.684C266.181 218.168 272.253 217.845 273.052 215.907C273.532 214.615 269.697 206.378 264.583 197.657C249.723 172.462 247.645 169.555 244.13 169.717C242.372 169.717 236.14 172.785 230.388 176.662Z" fill="url(#paint1_linear_2464_676)"/>
<path d="M400.408 186.029C386.187 210.416 383.31 216.23 384.429 217.361C384.908 217.846 400.408 218.33 418.625 218.169C450.104 217.846 463.846 217.038 463.846 215.1C463.846 213.323 445.15 191.52 438.439 185.383C430.13 178.115 416.387 169.556 412.552 169.556C411.114 169.556 406.161 176.177 400.408 186.029Z" fill="url(#paint2_linear_2464_676)"/>
<path d="M208.494 235.288C205.618 235.772 203.381 236.58 203.7 237.388C204.02 238.195 216.004 245.786 230.386 254.346C256.592 269.688 256.592 269.688 328.818 269.688C400.885 269.688 400.885 269.688 421.818 257.091C433.483 250.308 444.988 243.363 447.705 241.91C455.375 237.711 453.777 235.772 442.751 235.772C345.916 235.126 212.489 234.803 208.494 235.288Z" fill="url(#paint3_linear_2464_676)"/>
<path d="M198.588 246.271C198.588 250.632 320.191 465.272 322.268 464.625C323.386 464.302 324.185 453.643 324.505 433.455C324.825 402.769 324.825 402.769 293.984 347.696C276.887 317.495 260.907 289.07 258.51 284.548C254.356 276.795 252.438 275.342 227.83 260.806C203.541 246.594 198.588 244.01 198.588 246.271Z" fill="url(#paint4_linear_2464_676)"/>
<path d="M430.29 260.16C416.707 268.235 404.723 275.664 403.604 276.633C402.645 277.764 385.867 306.35 366.532 340.105C331.218 401.638 331.218 401.638 331.537 432.647C331.857 449.605 332.656 463.656 333.455 463.979C334.893 464.302 343.362 450.09 379.475 386.78C389.702 369.014 411.754 330.576 428.532 301.344C445.31 272.111 459.053 247.563 459.053 246.755C459.053 243.848 454.099 246.271 430.29 260.16Z" fill="url(#paint5_linear_2464_676)"/>
<path d="M170.625 257.253C161.996 278.733 157.522 301.344 159.439 313.295C160.398 319.271 160.558 319.432 169.826 320.401C181.81 321.855 216.166 319.755 216.166 317.656C216.166 314.426 178.135 253.215 174.779 251.277C173.98 250.793 172.063 253.377 170.625 257.253Z" fill="url(#paint6_linear_2464_676)"/>
<path d="M479.505 257.899C466.562 275.988 443.072 315.234 443.072 318.464C443.072 320.402 447.387 321.048 466.722 322.017C481.902 322.824 491.809 322.663 494.685 321.532C499 319.917 499 319.756 499 304.897C498.84 296.661 497.881 284.386 496.763 277.603C494.366 264.683 489.093 250.309 486.536 250.309C485.577 250.309 482.541 253.7 479.505 257.899Z" fill="url(#paint7_linear_2464_676)"/>
<path d="M272.573 281.479C272.254 282.125 274.331 286.809 277.367 291.977C289.352 312.165 324.826 377.413 324.826 379.189C324.826 382.258 330.738 381.45 331.537 378.22C332.336 375.475 376.759 296.822 382.991 287.132C385.387 283.578 385.387 282.448 383.79 281.802C380.114 280.51 273.372 280.025 272.573 281.479Z" fill="url(#paint8_linear_2464_676)"/>
<path d="M168.229 340.589C164.074 341.235 162.476 342.527 162.157 345.112C160.718 354.963 171.425 382.096 187.084 409.229C195.074 422.957 220.162 450.574 224.476 450.574C225.914 450.574 229.11 447.183 231.826 442.822C239.656 430.386 259.311 394.532 259.311 392.755C259.311 391.948 255.156 384.034 249.883 375.313C244.77 366.43 238.058 354.963 235.022 349.634C229.589 339.943 229.589 339.943 201.626 339.782C186.285 339.62 171.265 339.943 168.229 340.589Z" fill="url(#paint9_linear_2464_676)"/>
<path d="M427.252 342.366C426.134 343.658 418.304 355.609 409.995 369.014C394.814 393.24 394.814 393.24 409.515 422.795C417.505 439.107 425.175 452.835 426.294 453.158C432.366 455.581 451.062 437.008 467.201 412.782C482.381 390.172 493.407 364.977 494.525 351.087C495.005 345.112 494.845 344.95 488.613 343.658C485.098 343.012 470.397 341.882 455.855 341.236C433.325 340.105 429.17 340.267 427.252 342.366Z" fill="url(#paint10_linear_2464_676)"/>
<path d="M261.387 430.063C249.243 452.19 244.609 462.041 245.408 464.141C246.366 466.563 266.341 476.738 279.284 481.26C290.789 485.46 312.041 487.559 312.041 484.652C312.041 479.807 274.33 415.043 271.454 415.043C270.495 415.043 266.021 421.827 261.387 430.063Z" fill="url(#paint11_linear_2464_676)"/>
<path d="M378.516 418.597C366.212 438.301 340.805 482.068 340.805 484.007C340.805 489.175 377.397 482.391 394.655 474.155C401.047 470.925 406.799 467.372 407.279 466.079C407.758 464.787 403.444 454.128 397.531 442.338C382.191 411.814 382.671 412.298 378.516 418.597Z" fill="url(#paint12_linear_2464_676)"/>
<defs>
<linearGradient id="paint0_linear_2464_676" x1="328.986" y1="146" x2="328.986" y2="217.2" gradientUnits="userSpaceOnUse">
<stop offset="0.03" stop-color="#1A365D"/>
<stop offset="1" stop-color="#93B7F0"/>
</linearGradient>
<linearGradient id="paint1_linear_2464_676" x1="233.511" y1="169.711" x2="233.511" y2="217.884" gradientUnits="userSpaceOnUse">
<stop offset="0.03" stop-color="#1A365D"/>
<stop offset="1" stop-color="#93B7F0"/>
</linearGradient>
<linearGradient id="paint2_linear_2464_676" x1="424.028" y1="169.556" x2="424.028" y2="218.2" gradientUnits="userSpaceOnUse">
<stop offset="0.03" stop-color="#1A365D"/>
<stop offset="1" stop-color="#93B7F0"/>
</linearGradient>
<linearGradient id="paint3_linear_2464_676" x1="328.062" y1="235.055" x2="328.062" y2="269.688" gradientUnits="userSpaceOnUse">
<stop offset="0.03" stop-color="#1A365D"/>
<stop offset="1" stop-color="#93B7F0"/>
</linearGradient>
<linearGradient id="paint4_linear_2464_676" x1="261.575" y1="245.55" x2="261.575" y2="464.627" gradientUnits="userSpaceOnUse">
<stop offset="0.03" stop-color="#1A365D"/>
<stop offset="1" stop-color="#93B7F0"/>
</linearGradient>
<linearGradient id="paint5_linear_2464_676" x1="395.268" y1="245.668" x2="395.268" y2="463.984" gradientUnits="userSpaceOnUse">
<stop offset="0.03" stop-color="#1A365D"/>
<stop offset="1" stop-color="#93B7F0"/>
</linearGradient>
<linearGradient id="paint6_linear_2464_676" x1="187.583" y1="251.219" x2="187.583" y2="320.884" gradientUnits="userSpaceOnUse">
<stop offset="0.03" stop-color="#1A365D"/>
<stop offset="1" stop-color="#93B7F0"/>
</linearGradient>
<linearGradient id="paint7_linear_2464_676" x1="471.036" y1="250.309" x2="471.036" y2="322.521" gradientUnits="userSpaceOnUse">
<stop offset="0.03" stop-color="#1A365D"/>
<stop offset="1" stop-color="#93B7F0"/>
</linearGradient>
<linearGradient id="paint8_linear_2464_676" x1="328.722" y1="280.589" x2="328.722" y2="381.113" gradientUnits="userSpaceOnUse">
<stop offset="0.03" stop-color="#1A365D"/>
<stop offset="1" stop-color="#93B7F0"/>
</linearGradient>
<linearGradient id="paint9_linear_2464_676" x1="210.669" y1="339.741" x2="210.669" y2="450.574" gradientUnits="userSpaceOnUse">
<stop offset="0.03" stop-color="#1A365D"/>
<stop offset="1" stop-color="#93B7F0"/>
</linearGradient>
<linearGradient id="paint10_linear_2464_676" x1="446.621" y1="340.54" x2="446.621" y2="453.371" gradientUnits="userSpaceOnUse">
<stop offset="0.03" stop-color="#1A365D"/>
<stop offset="1" stop-color="#93B7F0"/>
</linearGradient>
<linearGradient id="paint11_linear_2464_676" x1="278.681" y1="415.043" x2="278.681" y2="486" gradientUnits="userSpaceOnUse">
<stop offset="0.03" stop-color="#1A365D"/>
<stop offset="1" stop-color="#93B7F0"/>
</linearGradient>
<linearGradient id="paint12_linear_2464_676" x1="374.06" y1="415.162" x2="374.06" y2="485.808" gradientUnits="userSpaceOnUse">
<stop offset="0.03" stop-color="#1A365D"/>
<stop offset="1" stop-color="#93B7F0"/>
</linearGradient>
</defs>
</svg>
