<svg width="272" height="230" viewBox="0 0 272 230" fill="none" xmlns="http://www.w3.org/2000/svg">
<g clip-path="url(#clip0_2500_1945)">
<path fill-rule="evenodd" clip-rule="evenodd" d="M208.353 218.298C212.002 220.483 216.705 221.029 220.899 219.688C225.092 218.337 228.175 215.308 229.104 211.638C238.953 172.499 262.843 73.4365 271.808 37.8345C272.488 35.1511 271.355 32.3624 268.861 30.5703C266.368 28.7782 262.911 28.2607 259.829 29.2286C212.308 44.102 65.9606 90.5332 6.14327 109.249C2.3466 110.438 -0.124064 113.524 0.000602759 116.907C0.136603 120.299 2.83394 123.241 6.72127 124.228C33.5473 131.013 68.7599 140.453 68.7599 140.453C68.7599 140.453 85.2159 182.476 93.7953 203.847C94.8719 206.53 97.3539 208.638 100.629 209.367C103.893 210.085 107.384 209.328 109.821 207.383C123.602 196.381 144.909 179.371 144.909 179.371C144.909 179.371 185.391 204.469 208.353 218.298ZM83.5726 135.144L102.601 188.216L106.829 154.607C106.829 154.607 180.348 98.5353 222.259 66.5749C223.483 65.6357 223.653 64.0641 222.633 62.962C221.624 61.8599 219.765 61.6011 218.371 62.3486C169.797 88.5782 83.5726 135.144 83.5726 135.144Z" fill="#F5F5F5"/>
</g>
<defs>
<clipPath id="clip0_2500_1945">
<rect width="272" height="230" fill="white"/>
</clipPath>
</defs>
</svg>
