<svg width="512" height="463" viewBox="0 0 512 463" fill="none" xmlns="http://www.w3.org/2000/svg">
<path d="M229.885 300.678L88.4421 462.299H11.2108L193.94 253.445L194.21 253.137L193.961 252.812L1.01181 0.5H161.75L273.456 148.182L273.827 148.672L274.231 148.209L403.456 0.5H480.633L309.843 195.711L309.575 196.017L309.82 196.342L510.995 462.299H354.249L230.658 300.703L230.287 300.218L229.885 300.678ZM375.276 416.109L375.426 416.305H375.673H419.178H420.183L419.577 415.503L138.762 44.2254L138.612 44.027H138.363H91.683H90.6711L91.2859 44.8308L375.276 416.109Z" fill="#F5F5F5" stroke="black"/>
</svg>
